<svg width="28" height="28" viewBox="0 0 28 28" fill="none" xmlns="http://www.w3.org/2000/svg">
<rect width="28" height="28" rx="8" fill="#FFEAD6"/>
<mask id="mask0_6835_79365" style="mask-type:alpha" maskUnits="userSpaceOnUse" x="2" y="2" width="24" height="24">
<rect x="2" y="2" width="24" height="24" fill="#D9D9D9"/>
</mask>
<g mask="url(#mask0_6835_79365)">
<path d="M13.475 16.475L9.85001 12.85C9.80001 12.8 9.76251 12.7458 9.73751 12.6875C9.71251 12.6292 9.70001 12.5667 9.70001 12.5C9.70001 12.3667 9.74585 12.25 9.83751 12.15C9.92918 12.05 10.05 12 10.2 12H17.8C17.95 12 18.0708 12.05 18.1625 12.15C18.2542 12.25 18.3 12.3667 18.3 12.5C18.3 12.5333 18.25 12.65 18.15 12.85L14.525 16.475C14.4417 16.5583 14.3583 16.6167 14.275 16.65C14.1917 16.6833 14.1 16.7 14 16.7C13.9 16.7 13.8083 16.6833 13.725 16.65C13.6417 16.6167 13.5583 16.5583 13.475 16.475Z" fill="#C95A1E"/>
</g>
</svg>
