<svg width="28" height="28" viewBox="0 0 28 28" fill="none" xmlns="http://www.w3.org/2000/svg">
<rect width="28" height="28" rx="8" fill="#ECF3FF"/>
<mask id="mask0_2292_34185" style="mask-type:alpha" maskUnits="userSpaceOnUse" x="2" y="2" width="24" height="24">
<rect x="2" y="2" width="24" height="24" fill="#D9D9D9"/>
</mask>
<g mask="url(#mask0_2292_34185)">
<path d="M13.4752 16.475L9.8502 12.85C9.8002 12.8 9.7627 12.7458 9.7377 12.6875C9.7127 12.6292 9.7002 12.5667 9.7002 12.5C9.7002 12.3667 9.74603 12.25 9.8377 12.15C9.92936 12.05 10.0502 12 10.2002 12H17.8002C17.9502 12 18.071 12.05 18.1627 12.15C18.2544 12.25 18.3002 12.3667 18.3002 12.5C18.3002 12.5333 18.2502 12.65 18.1502 12.85L14.5252 16.475C14.4419 16.5583 14.3585 16.6167 14.2752 16.65C14.1919 16.6833 14.1002 16.7 14.0002 16.7C13.9002 16.7 13.8085 16.6833 13.7252 16.65C13.6419 16.6167 13.5585 16.5583 13.4752 16.475Z" fill="#3733AA"/>
</g>
</svg>
