<svg preserveAspectRatio="none" width="100%" height="100%" overflow="visible" style="display: block;" viewBox="0 0 32 34.1536" fill="none" xmlns="http://www.w3.org/2000/svg">
<g id="icon" filter="url(#filter0_d_14788_57894)">
<mask id="mask0_14788_57894" style="mask-type:alpha" maskUnits="userSpaceOnUse" x="0" y="0" width="32" height="32">
<rect id="Bounding box" width="32" height="32" fill="var(--fill-0, #D9D9D9)"/>
</mask>
<g mask="url(#mask0_14788_57894)">
<path id="apps" d="M7.99998 26.1536C7.40776 26.1536 6.90076 25.9428 6.47898 25.521C6.0572 25.0992 5.84631 24.5922 5.84631 24C5.84631 23.4078 6.0572 22.9008 6.47898 22.479C6.90076 22.0572 7.40776 21.8463 7.99998 21.8463C8.5922 21.8463 9.0992 22.0572 9.52098 22.479C9.94276 22.9008 10.1536 23.4078 10.1536 24C10.1536 24.5922 9.94276 25.0992 9.52098 25.521C9.0992 25.9428 8.5922 26.1536 7.99998 26.1536ZM16 26.1536C15.4078 26.1536 14.9008 25.9428 14.479 25.521C14.0572 25.0992 13.8463 24.5922 13.8463 24C13.8463 23.4078 14.0572 22.9008 14.479 22.479C14.9008 22.0572 15.4078 21.8463 16 21.8463C16.5922 21.8463 17.0992 22.0572 17.521 22.479C17.9428 22.9008 18.1536 23.4078 18.1536 24C18.1536 24.5922 17.9428 25.0992 17.521 25.521C17.0992 25.9428 16.5922 26.1536 16 26.1536ZM24 26.1536C23.4078 26.1536 22.9008 25.9428 22.479 25.521C22.0572 25.0992 21.8463 24.5922 21.8463 24C21.8463 23.4078 22.0572 22.9008 22.479 22.479C22.9008 22.0572 23.4078 21.8463 24 21.8463C24.5922 21.8463 25.0992 22.0572 25.521 22.479C25.9428 22.9008 26.1536 23.4078 26.1536 24C26.1536 24.5922 25.9428 25.0992 25.521 25.521C25.0992 25.9428 24.5922 26.1536 24 26.1536ZM7.99998 18.1536C7.40776 18.1536 6.90076 17.9428 6.47898 17.521C6.0572 17.0992 5.84631 16.5922 5.84631 16C5.84631 15.4078 6.0572 14.9008 6.47898 14.479C6.90076 14.0572 7.40776 13.8463 7.99998 13.8463C8.5922 13.8463 9.0992 14.0572 9.52098 14.479C9.94276 14.9008 10.1536 15.4078 10.1536 16C10.1536 16.5922 9.94276 17.0992 9.52098 17.521C9.0992 17.9428 8.5922 18.1536 7.99998 18.1536ZM16 18.1536C15.4078 18.1536 14.9008 17.9428 14.479 17.521C14.0572 17.0992 13.8463 16.5922 13.8463 16C13.8463 15.4078 14.0572 14.9008 14.479 14.479C14.9008 14.0572 15.4078 13.8463 16 13.8463C16.5922 13.8463 17.0992 14.0572 17.521 14.479C17.9428 14.9008 18.1536 15.4078 18.1536 16C18.1536 16.5922 17.9428 17.0992 17.521 17.521C17.0992 17.9428 16.5922 18.1536 16 18.1536ZM24 18.1536C23.4078 18.1536 22.9008 17.9428 22.479 17.521C22.0572 17.0992 21.8463 16.5922 21.8463 16C21.8463 15.4078 22.0572 14.9008 22.479 14.479C22.9008 14.0572 23.4078 13.8463 24 13.8463C24.5922 13.8463 25.0992 14.0572 25.521 14.479C25.9428 14.9008 26.1536 15.4078 26.1536 16C26.1536 16.5922 25.9428 17.0992 25.521 17.521C25.0992 17.9428 24.5922 18.1536 24 18.1536ZM7.99998 10.1536C7.40776 10.1536 6.90076 9.94276 6.47898 9.52098C6.0572 9.0992 5.84631 8.5922 5.84631 7.99998C5.84631 7.40776 6.0572 6.90076 6.47898 6.47898C6.90076 6.0572 7.40776 5.84631 7.99998 5.84631C8.5922 5.84631 9.0992 6.0572 9.52098 6.47898C9.94276 6.90076 10.1536 7.40776 10.1536 7.99998C10.1536 8.5922 9.94276 9.0992 9.52098 9.52098C9.0992 9.94276 8.5922 10.1536 7.99998 10.1536ZM16 10.1536C15.4078 10.1536 14.9008 9.94276 14.479 9.52098C14.0572 9.0992 13.8463 8.5922 13.8463 7.99998C13.8463 7.40776 14.0572 6.90076 14.479 6.47898C14.9008 6.0572 15.4078 5.84631 16 5.84631C16.5922 5.84631 17.0992 6.0572 17.521 6.47898C17.9428 6.90076 18.1536 7.40776 18.1536 7.99998C18.1536 8.5922 17.9428 9.0992 17.521 9.52098C17.0992 9.94276 16.5922 10.1536 16 10.1536ZM24 10.1536C23.4078 10.1536 22.9008 9.94276 22.479 9.52098C22.0572 9.0992 21.8463 8.5922 21.8463 7.99998C21.8463 7.40776 22.0572 6.90076 22.479 6.47898C22.9008 6.0572 23.4078 5.84631 24 5.84631C24.5922 5.84631 25.0992 6.0572 25.521 6.47898C25.9428 6.90076 26.1536 7.40776 26.1536 7.99998C26.1536 8.5922 25.9428 9.0992 25.521 9.52098C25.0992 9.94276 24.5922 10.1536 24 10.1536Z" fill="var(--fill-0, #6AEBB7)"/>
</g>
</g>
<defs>
<filter id="filter0_d_14788_57894" x="1.84631" y="5.84631" width="28.3073" height="28.3073" filterUnits="userSpaceOnUse" color-interpolation-filters="sRGB">
<feFlood flood-opacity="0" result="BackgroundImageFix"/>
<feColorMatrix in="SourceAlpha" type="matrix" values="0 0 0 0 0 0 0 0 0 0 0 0 0 0 0 0 0 0 127 0" result="hardAlpha"/>
<feOffset dy="4"/>
<feGaussianBlur stdDeviation="2"/>
<feComposite in2="hardAlpha" operator="out"/>
<feColorMatrix type="matrix" values="0 0 0 0 0 0 0 0 0 0 0 0 0 0 0 0 0 0 0.25 0"/>
<feBlend mode="normal" in2="BackgroundImageFix" result="effect1_dropShadow_14788_57894"/>
<feBlend mode="normal" in="SourceGraphic" in2="effect1_dropShadow_14788_57894" result="shape"/>
</filter>
</defs>
</svg>
