<svg preserveAspectRatio="none" width="100%" height="100%" overflow="visible" style="display: block;" viewBox="0 0 20 20" fill="none" xmlns="http://www.w3.org/2000/svg">
<g id="keyboard_arrow_right">
<mask id="mask0_14788_58052" style="mask-type:alpha" maskUnits="userSpaceOnUse" x="0" y="0" width="20" height="20">
<rect id="Bounding box" width="20" height="20" fill="var(--fill-0, #D9D9D9)"/>
</mask>
<g mask="url(#mask0_14788_58052)">
<path id="keyboard_arrow_right_2" d="M9.70969 9L6.65475 5.94525C6.551 5.84138 6.49788 5.71081 6.49538 5.55356C6.493 5.39644 6.54613 5.2635 6.65475 5.15475C6.7635 5.04612 6.89525 4.99181 7.05 4.99181C7.20475 4.99181 7.3365 5.04612 7.44525 5.15475L10.8159 8.52544C10.8861 8.59569 10.9356 8.66975 10.9644 8.74762C10.9933 8.8255 11.0078 8.90963 11.0078 9C11.0078 9.09038 10.9933 9.1745 10.9644 9.25237C10.9356 9.33025 10.8861 9.40431 10.8159 9.47456L7.44525 12.8453C7.34137 12.949 7.21081 13.0021 7.05356 13.0046C6.89644 13.007 6.7635 12.9539 6.65475 12.8453C6.54613 12.7365 6.49181 12.6048 6.49181 12.45C6.49181 12.2953 6.54613 12.1635 6.65475 12.0548L9.70969 9Z" fill="var(--fill-0, #77788F)"/>
</g>
</g>
</svg>
