<svg preserveAspectRatio="none" width="100%" height="100%" overflow="visible" style="display: block;" viewBox="0 0 24 24" fill="none" xmlns="http://www.w3.org/2000/svg">
<g id="ico_arrow">
<circle id="Ellipse 126" cx="12" cy="12" r="12" fill="var(--fill-0, #EEEDF1)"/>
<g id="keyboard_arrow_down">
<mask id="mask0_14788_57936" style="mask-type:alpha" maskUnits="userSpaceOnUse" x="2" y="2" width="20" height="20">
<rect id="Bounding box" x="2" y="2" width="20" height="20" fill="var(--fill-0, #D9D9D9)"/>
</mask>
<g mask="url(#mask0_14788_57936)">
<path id="keyboard_arrow_down_2" d="M12.0007 15.3123C11.8895 15.3123 11.7854 15.295 11.6882 15.2603C11.5909 15.2255 11.5007 15.1665 11.4173 15.0832L7.58399 11.2498C7.43121 11.0971 7.35482 10.9026 7.35482 10.6665C7.35482 10.4304 7.43121 10.2359 7.58399 10.0832C7.73676 9.93039 7.93121 9.854 8.16732 9.854C8.40343 9.854 8.59787 9.93039 8.75065 10.0832L12.0007 13.3332L15.2507 10.0832C15.4034 9.93039 15.5979 9.854 15.834 9.854C16.0701 9.854 16.2645 9.93039 16.4173 10.0832C16.5701 10.2359 16.6465 10.4304 16.6465 10.6665C16.6465 10.9026 16.5701 11.0971 16.4173 11.2498L12.584 15.0832C12.5007 15.1665 12.4104 15.2255 12.3132 15.2603C12.2159 15.295 12.1118 15.3123 12.0007 15.3123Z" fill="var(--fill-0, #555466)"/>
</g>
</g>
</g>
</svg>
