<svg preserveAspectRatio="none" width="100%" height="100%" overflow="visible" style="display: block;" viewBox="0 0 24 24" fill="none" xmlns="http://www.w3.org/2000/svg">
<g id="undo">
<mask id="mask0_14788_57954" style="mask-type:alpha" maskUnits="userSpaceOnUse" x="0" y="0" width="24" height="24">
<rect id="Bounding box" width="24" height="24" fill="var(--fill-0, #D9D9D9)"/>
</mask>
<g mask="url(#mask0_14788_57954)">
<path id="undo_2" d="M8 19C7.71667 19 7.47917 18.9042 7.2875 18.7125C7.09583 18.5208 7 18.2833 7 18C7 17.7167 7.09583 17.4792 7.2875 17.2875C7.47917 17.0958 7.71667 17 8 17H14.1C15.15 17 16.0625 16.6667 16.8375 16C17.6125 15.3333 18 14.5 18 13.5C18 12.5 17.6125 11.6667 16.8375 11C16.0625 10.3333 15.15 10 14.1 10H7.8L9.7 11.9C9.88333 12.0833 9.975 12.3167 9.975 12.6C9.975 12.8833 9.88333 13.1167 9.7 13.3C9.51667 13.4833 9.28333 13.575 9 13.575C8.71667 13.575 8.48333 13.4833 8.3 13.3L4.7 9.7C4.6 9.6 4.52917 9.49167 4.4875 9.375C4.44583 9.25833 4.425 9.13333 4.425 9C4.425 8.86667 4.44583 8.74167 4.4875 8.625C4.52917 8.50833 4.6 8.4 4.7 8.3L8.3 4.7C8.48333 4.51667 8.71667 4.425 9 4.425C9.28333 4.425 9.51667 4.51667 9.7 4.7C9.88333 4.88333 9.975 5.11667 9.975 5.4C9.975 5.68333 9.88333 5.91667 9.7 6.1L7.8 8H14.1C15.7167 8 17.1042 8.525 18.2625 9.575C19.4208 10.625 20 11.9333 20 13.5C20 15.0667 19.4208 16.375 18.2625 17.425C17.1042 18.475 15.7167 19 14.1 19H8Z" fill="var(--fill-0, #77788F)"/>
</g>
</g>
</svg>
