<svg preserveAspectRatio="none" width="100%" height="100%" overflow="visible" style="display: block;" viewBox="0 0 20 20" fill="none" xmlns="http://www.w3.org/2000/svg">
<g id="arrow_back">
<mask id="mask0_14788_58102" style="mask-type:alpha" maskUnits="userSpaceOnUse" x="0" y="0" width="20" height="20">
<rect id="Bounding box" width="20" height="20" fill="var(--fill-0, #D9D9D9)"/>
</mask>
<g mask="url(#mask0_14788_58102)">
<path id="arrow_back_2" d="M6.49833 10.5417L10.3938 14.4371C10.5008 14.5442 10.5571 14.6703 10.5625 14.8156C10.5678 14.9609 10.5128 15.0946 10.3975 15.2167C10.2821 15.3307 10.1531 15.3864 10.0104 15.3837C9.86778 15.3811 9.74014 15.3233 9.6275 15.2104L4.88979 10.4667C4.82007 10.3968 4.76924 10.3234 4.73729 10.2465C4.70521 10.1695 4.68917 10.0862 4.68917 9.99667C4.68917 9.90722 4.70521 9.82396 4.73729 9.74687C4.76924 9.66993 4.81729 9.59937 4.88146 9.53521L9.62333 4.79333C9.73875 4.67792 9.86896 4.61889 10.014 4.61625C10.1588 4.61361 10.2867 4.67264 10.3975 4.79333C10.5128 4.90403 10.5704 5.03055 10.5704 5.17292C10.5704 5.31514 10.5139 5.44285 10.4008 5.55604L6.49833 9.45833H15.0421C15.1957 9.45833 15.3243 9.50979 15.4279 9.61271C15.5315 9.71549 15.5833 9.84312 15.5833 9.99562C15.5833 10.1481 15.5315 10.2772 15.4279 10.3829C15.3243 10.4887 15.1957 10.5417 15.0421 10.5417H6.49833Z" fill="var(--fill-0, #9596A9)"/>
</g>
</g>
</svg>
