<svg preserveAspectRatio="none" width="100%" height="100%" overflow="visible" style="display: block;" viewBox="0 0 20 20" fill="none" xmlns="http://www.w3.org/2000/svg">
<g id="arrow_forward">
<mask id="mask0_14788_58090" style="mask-type:alpha" maskUnits="userSpaceOnUse" x="0" y="0" width="20" height="20">
<rect id="Bounding box" width="20" height="20" fill="var(--fill-0, #D9D9D9)"/>
</mask>
<g mask="url(#mask0_14788_58090)">
<path id="arrow_forward_2" d="M13.5017 10.5417H4.95792C4.80431 10.5417 4.67569 10.4902 4.57208 10.3873C4.46847 10.2845 4.41667 10.1569 4.41667 10.0044C4.41667 9.85188 4.46847 9.72278 4.57208 9.61708C4.67569 9.51125 4.80431 9.45833 4.95792 9.45833H13.5017L9.60625 5.56292C9.49917 5.45583 9.44292 5.32965 9.4375 5.18438C9.43222 5.0391 9.48722 4.90542 9.6025 4.78333C9.71792 4.66931 9.84694 4.61361 9.98958 4.61625C10.1322 4.61889 10.2599 4.67667 10.3725 4.78958L15.1102 9.53333C15.1799 9.6032 15.2308 9.6766 15.2627 9.75354C15.2948 9.83049 15.3108 9.91375 15.3108 10.0033C15.3108 10.0928 15.2948 10.176 15.2627 10.2531C15.2308 10.3301 15.1827 10.4006 15.1185 10.4648L10.3767 15.2067C10.2612 15.3221 10.1357 15.3776 10 15.3733C9.86431 15.369 9.73875 15.3099 9.62333 15.1958C9.50806 15.0738 9.45042 14.9416 9.45042 14.7994C9.45042 14.6572 9.50806 14.5306 9.62333 14.4198L13.5017 10.5417Z" fill="var(--fill-0, #77788F)"/>
</g>
</g>
</svg>
