<svg preserveAspectRatio="none" width="100%" height="100%" overflow="visible" style="display: block;" viewBox="0 0 20 20" fill="none" xmlns="http://www.w3.org/2000/svg">
<g id="arrow_warm_up">
<mask id="mask0_14788_58094" style="mask-type:alpha" maskUnits="userSpaceOnUse" x="0" y="0" width="20" height="20">
<rect id="Bounding box" width="20" height="20" fill="var(--fill-0, #D9D9D9)"/>
</mask>
<g mask="url(#mask0_14788_58094)">
<path id="arrow_warm_up_2" d="M10.0044 11C9.79312 11 9.61458 10.9281 9.46875 10.7844C9.32292 10.6406 9.25 10.4625 9.25 10.25V4.875L6.07792 8.04583C5.92875 8.19583 5.75347 8.26736 5.55208 8.26042C5.35069 8.25347 5.17361 8.17361 5.02083 8.02083C4.86806 7.86806 4.79167 7.69444 4.79167 7.5C4.79167 7.30556 4.86806 7.13194 5.02083 6.97917L9.47917 2.52083C9.55417 2.45139 9.63542 2.39931 9.72292 2.36458C9.81042 2.32986 9.90417 2.3125 10.0042 2.3125C10.1042 2.3125 10.1979 2.32986 10.2854 2.36458C10.3729 2.39931 10.4514 2.45139 10.5208 2.52083L14.9792 6.97917C15.1319 7.13194 15.2083 7.30556 15.2083 7.5C15.2083 7.69444 15.1353 7.86806 14.9892 8.02083C14.8297 8.17361 14.6481 8.25 14.4444 8.25C14.2408 8.25 14.0649 8.17361 13.9167 8.02083L10.75 4.875V10.25C10.75 10.4625 10.6785 10.6406 10.5356 10.7844C10.3927 10.9281 10.2156 11 10.0044 11ZM10.0044 15C9.79312 15 9.61458 14.9281 9.46875 14.7844C9.32292 14.6406 9.25 14.4625 9.25 14.25V13.25C9.25 13.0375 9.32146 12.8594 9.46438 12.7156C9.60729 12.5719 9.78438 12.5 9.99563 12.5C10.2069 12.5 10.3854 12.5719 10.5312 12.7156C10.6771 12.8594 10.75 13.0375 10.75 13.25V14.25C10.75 14.4625 10.6785 14.6406 10.5356 14.7844C10.3927 14.9281 10.2156 15 10.0044 15ZM10.0044 18C9.79312 18 9.61458 17.9285 9.46875 17.7856C9.32292 17.6427 9.25 17.4656 9.25 17.2544C9.25 17.0431 9.32146 16.8646 9.46438 16.7187C9.60729 16.5729 9.78438 16.5 9.99563 16.5C10.2069 16.5 10.3854 16.5715 10.5312 16.7144C10.6771 16.8573 10.75 17.0344 10.75 17.2456C10.75 17.4569 10.6785 17.6354 10.5356 17.7812C10.3927 17.9271 10.2156 18 10.0044 18Z" fill="var(--fill-0, white)"/>
</g>
</g>
</svg>
