<svg preserveAspectRatio="none" width="100%" height="100%" overflow="visible" style="display: block;" viewBox="0 0 893.999 252" fill="none" xmlns="http://www.w3.org/2000/svg">
<g id="bg-steps">
<path id="Vector 23" d="M0 11H851.899C868.311 11 881.677 24.1879 881.896 40.5983L884.173 210.598C884.397 227.322 870.902 241 854.176 241H3.08035" stroke="url(#paint0_linear_14788_58072)" stroke-width="7"/>
<g id="arrow">
<path id="Polygon 4" d="M152 11.0006L138 22V0L152 11.0006Z" fill="url(#paint1_linear_14788_58072)"/>
<path id="Polygon 5" d="M162 11.0006L148 22V0L162 11.0006Z" fill="url(#paint2_linear_14788_58072)"/>
</g>
<g id="arrow_2">
<path id="Polygon 4_2" d="M148 241.001L162 252V230L148 241.001Z" fill="url(#paint3_linear_14788_58072)"/>
<path id="Polygon 5_2" d="M138 241.001L152 252V230L138 241.001Z" fill="url(#paint4_linear_14788_58072)"/>
</g>
<g id="arrow_3">
<path id="Polygon 4_3" d="M516 241.001L530 252V230L516 241.001Z" fill="url(#paint5_linear_14788_58072)"/>
<path id="Polygon 5_3" d="M506 241.001L520 252V230L506 241.001Z" fill="url(#paint6_linear_14788_58072)"/>
</g>
<g id="arrow_4">
<path id="Polygon 4_4" d="M520 11.0006L506 22V0L520 11.0006Z" fill="url(#paint7_linear_14788_58072)"/>
<path id="Polygon 5_4" d="M530 11.0006L516 22V0L530 11.0006Z" fill="url(#paint8_linear_14788_58072)"/>
</g>
<g id="arrow_5">
<path id="Polygon 4_5" d="M882.998 128L871.999 114L893.999 114L882.998 128Z" fill="url(#paint9_linear_14788_58072)"/>
<path id="Polygon 5_5" d="M882.998 138L871.999 124L893.999 124L882.998 138Z" fill="url(#paint10_linear_14788_58072)"/>
</g>
</g>
<defs>
<linearGradient id="paint0_linear_14788_58072" x1="141" y1="17" x2="141" y2="253" gradientUnits="userSpaceOnUse">
<stop stop-color="#2CC9B7"/>
<stop offset="1" stop-color="#47B5DD"/>
</linearGradient>
<linearGradient id="paint1_linear_14788_58072" x1="151.378" y1="9.7909" x2="137.689" y2="9.7909" gradientUnits="userSpaceOnUse">
<stop stop-color="#0098D9"/>
<stop offset="1" stop-color="#0098D9" stop-opacity="0"/>
</linearGradient>
<linearGradient id="paint2_linear_14788_58072" x1="161.378" y1="9.7909" x2="147.689" y2="9.7909" gradientUnits="userSpaceOnUse">
<stop stop-color="#0098D9"/>
<stop offset="1" stop-color="#0098D9" stop-opacity="0"/>
</linearGradient>
<linearGradient id="paint3_linear_14788_58072" x1="148.622" y1="239.791" x2="162.311" y2="239.791" gradientUnits="userSpaceOnUse">
<stop stop-color="#0098D9"/>
<stop offset="1" stop-color="#0098D9" stop-opacity="0"/>
</linearGradient>
<linearGradient id="paint4_linear_14788_58072" x1="138.622" y1="239.791" x2="152.311" y2="239.791" gradientUnits="userSpaceOnUse">
<stop stop-color="#0098D9"/>
<stop offset="1" stop-color="#0098D9" stop-opacity="0"/>
</linearGradient>
<linearGradient id="paint5_linear_14788_58072" x1="516.622" y1="239.791" x2="530.311" y2="239.791" gradientUnits="userSpaceOnUse">
<stop stop-color="#0098D9"/>
<stop offset="1" stop-color="#0098D9" stop-opacity="0"/>
</linearGradient>
<linearGradient id="paint6_linear_14788_58072" x1="506.622" y1="239.791" x2="520.311" y2="239.791" gradientUnits="userSpaceOnUse">
<stop stop-color="#0098D9"/>
<stop offset="1" stop-color="#0098D9" stop-opacity="0"/>
</linearGradient>
<linearGradient id="paint7_linear_14788_58072" x1="519.378" y1="9.7909" x2="505.689" y2="9.7909" gradientUnits="userSpaceOnUse">
<stop stop-color="#0098D9"/>
<stop offset="1" stop-color="#0098D9" stop-opacity="0"/>
</linearGradient>
<linearGradient id="paint8_linear_14788_58072" x1="529.378" y1="9.7909" x2="515.689" y2="9.7909" gradientUnits="userSpaceOnUse">
<stop stop-color="#0098D9"/>
<stop offset="1" stop-color="#0098D9" stop-opacity="0"/>
</linearGradient>
<linearGradient id="paint9_linear_14788_58072" x1="884.208" y1="127.378" x2="884.208" y2="113.689" gradientUnits="userSpaceOnUse">
<stop stop-color="#0098D9"/>
<stop offset="1" stop-color="#0098D9" stop-opacity="0"/>
</linearGradient>
<linearGradient id="paint10_linear_14788_58072" x1="884.208" y1="137.378" x2="884.208" y2="123.689" gradientUnits="userSpaceOnUse">
<stop stop-color="#0098D9"/>
<stop offset="1" stop-color="#0098D9" stop-opacity="0"/>
</linearGradient>
</defs>
</svg>
