<svg preserveAspectRatio="none" width="100%" height="100%" overflow="visible" style="display: block;" viewBox="0 0 20 20" fill="none" xmlns="http://www.w3.org/2000/svg">
<g id="chevron_backward">
<mask id="mask0_14788_57872" style="mask-type:alpha" maskUnits="userSpaceOnUse" x="0" y="0" width="20" height="20">
<rect id="Bounding box" width="20" height="20" fill="var(--fill-0, #D9D9D9)"/>
</mask>
<g mask="url(#mask0_14788_57872)">
<path id="chevron_backward_2" d="M9.125 10L12.5417 13.4167C12.6944 13.5694 12.7708 13.7465 12.7708 13.9479C12.7708 14.1493 12.6944 14.3264 12.5417 14.4792C12.3889 14.6319 12.2118 14.7083 12.0104 14.7083C11.809 14.7083 11.6296 14.6296 11.4721 14.4721L7.52083 10.5208C7.45139 10.4458 7.39931 10.3646 7.36458 10.2771C7.32986 10.1896 7.3125 10.0958 7.3125 9.99583C7.3125 9.89583 7.32986 9.80208 7.36458 9.71458C7.39931 9.62708 7.45139 9.54861 7.52083 9.47917L11.4721 5.52792C11.6296 5.37042 11.809 5.29167 12.0104 5.29167C12.2118 5.29167 12.3889 5.36806 12.5417 5.52083C12.6944 5.67361 12.7708 5.85069 12.7708 6.05208C12.7708 6.25347 12.6944 6.43056 12.5417 6.58333L9.125 10Z" fill="var(--fill-0, white)"/>
</g>
</g>
</svg>
