<svg preserveAspectRatio="none" width="100%" height="100%" overflow="visible" style="display: block;" viewBox="0 0 20 20" fill="none" xmlns="http://www.w3.org/2000/svg">
<g id="chevron_forward">
<mask id="mask0_14788_57910" style="mask-type:alpha" maskUnits="userSpaceOnUse" x="0" y="0" width="20" height="20">
<rect id="Bounding box" width="20" height="20" fill="var(--fill-0, #D9D9D9)"/>
</mask>
<g mask="url(#mask0_14788_57910)">
<path id="chevron_forward_2" d="M10.875 10L7.45833 6.58333C7.30556 6.43056 7.22917 6.25347 7.22917 6.05208C7.22917 5.85069 7.30556 5.67361 7.45833 5.52083C7.61111 5.36806 7.78819 5.29167 7.98958 5.29167C8.19097 5.29167 8.37042 5.37042 8.52792 5.52792L12.4792 9.47917C12.5486 9.55417 12.6007 9.63542 12.6354 9.72292C12.6701 9.81042 12.6875 9.90417 12.6875 10.0042C12.6875 10.1042 12.6701 10.1979 12.6354 10.2854C12.6007 10.3729 12.5486 10.4514 12.4792 10.5208L8.52792 14.4721C8.37042 14.6296 8.19444 14.7049 8 14.6979C7.80556 14.691 7.63194 14.6111 7.47917 14.4583C7.32639 14.3056 7.25 14.1285 7.25 13.9271C7.25 13.7257 7.32639 13.5486 7.47917 13.3958L10.875 10Z" fill="var(--fill-0, white)"/>
</g>
</g>
</svg>
