<svg preserveAspectRatio="none" width="100%" height="100%" overflow="visible" style="display: block;" viewBox="0 0 13.1667 15.2627" fill="none" xmlns="http://www.w3.org/2000/svg">
<path id="calendar_today" d="M1.33979 15.2627C0.964653 15.2627 0.647569 15.1308 0.388542 14.8669C0.129514 14.603 0 14.2883 0 13.9229V3.43583C0 3.07042 0.129514 2.75576 0.388542 2.49187C0.647569 2.22799 0.964653 2.09604 1.33979 2.09604H3.16021V0.5575C3.16021 0.398472 3.21299 0.265763 3.31854 0.159374C3.4241 0.0531242 3.55576 0 3.71354 0C3.87146 0 4.00458 0.0531242 4.11292 0.159374C4.22139 0.265763 4.27563 0.398472 4.27563 0.5575V2.09604H8.92313V0.541667C8.92313 0.387917 8.97451 0.259166 9.07729 0.155416C9.18021 0.0518048 9.30792 0 9.46042 0C9.61292 0 9.74201 0.0518048 9.84771 0.155416C9.95354 0.259166 10.0065 0.387917 10.0065 0.541667V2.09604H11.8269C12.202 2.09604 12.5191 2.22799 12.7781 2.49187C13.0372 2.75576 13.1667 3.07042 13.1667 3.43583V13.9229C13.1667 14.2883 13.0372 14.603 12.7781 14.8669C12.5191 15.1308 12.202 15.2627 11.8269 15.2627H1.33979ZM1.33979 14.1794H11.8269C11.891 14.1794 11.9498 14.1526 12.0031 14.0992C12.0566 14.0458 12.0833 13.9871 12.0833 13.9229V6.93583H1.08333V13.9229C1.08333 13.9871 1.11007 14.0458 1.16354 14.0992C1.21688 14.1526 1.27562 14.1794 1.33979 14.1794ZM1.08333 5.8525H12.0833V3.43583C12.0833 3.37167 12.0566 3.31292 12.0031 3.25958C11.9498 3.20611 11.891 3.17937 11.8269 3.17937H1.33979C1.27562 3.17937 1.21688 3.20611 1.16354 3.25958C1.11007 3.31292 1.08333 3.37167 1.08333 3.43583V5.8525Z" fill="var(--fill-0, #9596A9)"/>
</svg>
