<svg preserveAspectRatio="none" width="100%" height="100%" overflow="visible" style="display: block;" viewBox="0 0 28 28" fill="none" xmlns="http://www.w3.org/2000/svg">
<g id="category_search">
<mask id="mask0_14788_58627" style="mask-type:alpha" maskUnits="userSpaceOnUse" x="0" y="0" width="28" height="28">
<rect id="Bounding box" width="28" height="28" fill="var(--fill-0, #D9D9D9)"/>
</mask>
<g mask="url(#mask0_14788_58627)">
<path id="category_search_2" d="M3.80808 23.3333C3.50945 23.3333 3.25968 23.2322 3.05878 23.03C2.85768 22.8278 2.75713 22.5772 2.75713 22.2784V15.9492C2.75713 15.6504 2.85817 15.4004 3.06024 15.1993C3.2623 14.9981 3.51265 14.8975 3.81128 14.8975H10.1356C10.4342 14.8975 10.684 14.9986 10.8849 15.2008C11.086 15.403 11.1865 15.6536 11.1865 15.9524V22.2816C11.1865 22.5805 11.0855 22.8304 10.8834 23.0315C10.6814 23.2327 10.431 23.3333 10.1324 23.3333H3.80808ZM4.50579 21.5833H9.43788V16.6475H4.50579V21.5833ZM16.5377 11.0833H9.06367C8.66148 11.0833 8.35993 10.9027 8.15903 10.5414C7.95793 10.1801 7.96279 9.82383 8.1736 9.47247L11.8994 3.36088C12.1118 3.01691 12.4126 2.84492 12.802 2.84492C13.1912 2.84492 13.4912 3.01691 13.702 3.36088L17.4278 9.47247C17.6386 9.82383 17.6435 10.1801 17.4424 10.5414C17.2415 10.9027 16.9399 11.0833 16.5377 11.0833ZM10.2807 9.33334H15.3207L12.8008 5.27684L10.2807 9.33334ZM24.4023 25.5095L21.9498 23.0551C21.5641 23.3347 21.1408 23.5482 20.6797 23.6956C20.2186 23.843 19.7296 23.9167 19.2126 23.9167C17.8749 23.9167 16.7409 23.4511 15.8106 22.5199C14.8801 21.5889 14.4148 20.454 14.4148 19.1153C14.4148 17.7767 14.8801 16.6418 15.8106 15.7106C16.7409 14.7796 17.8749 14.3141 19.2126 14.3141C20.5501 14.3141 21.6841 14.7796 22.6146 15.7106C23.5449 16.6418 24.01 17.7767 24.01 19.1153C24.01 19.6208 23.9364 20.1025 23.7891 20.5602C23.642 21.0179 23.4384 21.4397 23.1782 21.8257L25.631 24.2801C25.7923 24.4417 25.8749 24.6448 25.8788 24.8894C25.8824 25.1338 25.7999 25.3405 25.631 25.5095C25.462 25.6786 25.2572 25.7632 25.0167 25.7632C24.7761 25.7632 24.5713 25.6786 24.4023 25.5095ZM19.212 22.1667C20.0657 22.1667 20.7874 21.8717 21.3771 21.2818C21.9666 20.692 22.2614 19.97 22.2614 19.1158C22.2614 18.2615 21.9667 17.5392 21.3774 16.9491C20.7879 16.3591 20.0664 16.0641 19.2129 16.0641C18.3591 16.0641 17.6375 16.359 17.048 16.9488C16.4583 17.5387 16.1635 18.2608 16.1635 19.115C16.1635 19.9694 16.4583 20.6915 17.0477 21.2815C17.637 21.8716 18.3585 22.1667 19.212 22.1667Z" fill="var(--fill-0, white)"/>
</g>
</g>
</svg>
