<svg preserveAspectRatio="none" width="100%" height="100%" overflow="visible" style="display: block;" viewBox="0 0 160.061 175" fill="none" xmlns="http://www.w3.org/2000/svg">
<g id="character" clip-path="url(#clip0_14788_58004)">
<path id="Vector" d="M119.169 138.768C119.169 137.49 118.156 136.454 116.907 136.454H108.041C108.235 136.091 108.362 135.694 108.387 135.263V134.84C108.404 134.624 108.387 134.468 108.387 134.313C108.353 134.011 108.286 133.717 108.185 133.432C108.083 133.165 107.948 132.906 107.779 132.655C107.619 132.422 107.433 132.207 107.214 131.982C106.96 131.732 106.665 131.49 106.31 131.248C106.015 131.041 105.702 130.86 105.398 130.67L105.196 130.54C105.018 130.437 104.849 130.325 104.681 130.212C104.579 130.143 104.486 130.083 104.393 130.005C104.233 129.884 104.098 129.772 103.98 129.66C103.87 129.548 103.769 129.435 103.676 129.315C103.591 129.194 103.507 129.064 103.439 128.917C103.372 128.779 103.313 128.624 103.254 128.451C103.203 128.287 103.152 128.115 103.11 127.942C103.059 127.743 103.017 127.545 102.983 127.346C102.941 127.122 102.891 126.897 102.848 126.664L102.73 126.06C102.654 125.715 102.578 125.369 102.502 125.024C102.181 123.677 101.793 122.322 101.329 120.992C100.873 119.689 100.349 118.385 99.7581 117.108C99.2092 115.925 98.6013 114.751 97.9427 113.62C97.2926 112.498 96.5749 111.384 95.8234 110.322C94.3374 108.216 92.6571 106.239 90.8334 104.443C90.656 104.27 90.4787 104.098 90.3014 103.934L87.7768 101.56C87.5826 101.378 87.3884 101.188 87.2027 101.007C87.0338 100.843 86.8649 100.679 86.6961 100.506L86.3668 100.17C86.2824 100.075 86.2232 99.9798 86.1726 99.8935C86.1557 99.8503 86.1388 99.8072 86.1219 99.764V99.669L86.181 99.5827C86.181 99.5827 86.2908 99.4964 86.2908 99.4878C86.3583 99.4446 86.4343 99.4014 86.5188 99.3755C86.6792 99.3151 86.8312 99.2547 86.9916 99.1942C95.072 95.9224 100.298 88.0664 100.298 79.1831C100.298 76.4206 99.7243 73.4854 98.6857 70.9214C97.9934 69.3157 97.1997 67.9689 96.3385 66.9243C96.1189 65.9143 96.0429 65.5517 95.9838 65.2841L94.616 58.4986C95.2239 58.3777 96.0261 58.2569 96.8113 58.1447C101.286 57.4713 104.005 56.9274 104.132 55.0109C104.216 53.267 104.402 51.4714 104.579 49.7189C104.866 46.9132 105.17 44.0125 105.061 41.1032C105.001 40.3867 104.723 39.8342 104.233 39.463C103.313 38.7724 102.055 39.0486 101.227 39.2385L101.084 39.2731C93.721 40.7407 86.2317 42.1996 78.8944 43.6327C68.1121 45.7305 56.9668 47.906 45.9397 50.1765C44.2848 50.6426 44.1497 51.7563 44.175 52.1534C43.8204 56.3404 43.4742 60.536 43.128 64.792C43.1111 65.6812 43.1871 66.9502 44.0737 67.6668C44.9518 68.3747 46.1339 68.1934 47.2484 67.8912L48.2701 67.6927C51.2422 67.1143 54.2142 66.5272 57.1779 65.9402L58.36 71.7933L58.8919 74.53C58.5457 75.4019 58.1995 77.2493 58.1995 79.1831C58.1995 81.9111 58.6977 84.5787 59.6771 87.1168L59.7953 87.4189C59.998 87.9283 60.2344 88.4462 60.4877 88.9556C62.8434 93.6778 67.158 97.5885 72.0805 99.4187L72.2578 99.4878C72.2578 99.4878 72.3254 99.5137 72.3676 99.5741C72.376 99.6086 72.3929 99.7036 72.3845 99.7726C72.376 99.8072 72.3591 99.8503 72.3338 99.8935C72.2832 99.9885 72.2241 100.083 72.1481 100.17L71.8188 100.506C71.6499 100.67 71.481 100.843 71.3122 101.007C71.118 101.197 70.9322 101.378 70.7296 101.56C70.5354 101.741 70.3412 101.931 70.147 102.112L67.6815 104.443C65.8577 106.239 64.1775 108.216 62.6914 110.322C61.94 111.384 61.2223 112.498 60.5721 113.62C59.922 114.742 59.3056 115.916 58.7568 117.099C58.1658 118.368 57.6423 119.672 57.1863 120.984C56.7219 122.313 56.3335 123.669 56.0127 125.015C55.9283 125.361 55.8523 125.706 55.7847 126.043L55.6496 126.707C55.6074 126.915 55.5736 127.122 55.523 127.329C55.4807 127.528 55.4385 127.726 55.3963 127.916C55.3541 128.089 55.3119 128.261 55.2528 128.434C55.1937 128.607 55.1346 128.762 55.067 128.9C54.9995 129.038 54.9235 129.176 54.8391 129.297C54.7546 129.418 54.6533 129.53 54.5351 129.643C54.4169 129.755 54.2818 129.876 54.1214 129.988C54.0285 130.057 53.9272 130.126 53.8343 130.195C53.6654 130.307 53.4881 130.42 53.3108 130.523L53.0997 130.653C52.8042 130.834 52.4918 131.024 52.1878 131.231C51.8332 131.473 51.5377 131.714 51.2844 131.965C51.0564 132.189 50.8706 132.405 50.7187 132.638C50.5498 132.88 50.4147 133.148 50.3134 133.415C50.2121 133.7 50.1361 133.994 50.1107 134.287C50.0938 134.442 50.0854 134.598 50.0938 134.814V135.228C50.1276 135.66 50.2627 136.065 50.4569 136.428H39.6493C38.3997 136.428 37.3865 137.464 37.3865 138.742C37.3865 139.795 38.0789 140.675 39.0161 140.952C39.6662 145.139 40.004 150.094 40.004 155.714C40.004 161.334 39.6747 166.298 39.0161 170.476C38.0789 170.761 37.3865 171.642 37.3865 172.686C37.3865 173.964 38.3997 175 39.6493 175H116.907C118.156 175 119.169 173.964 119.169 172.686C119.169 171.702 118.57 170.873 117.726 170.537C117.067 166.341 116.729 161.36 116.729 155.714C116.729 150.068 117.067 145.087 117.726 140.891C118.57 140.555 119.169 139.717 119.169 138.742V138.768ZM115.437 157.734C115.437 158.002 115.446 158.269 115.454 158.528H41.2874C41.2874 158.261 41.3042 158.002 41.3042 157.734H115.446H115.437ZM41.3042 157.061C41.3042 156.724 41.3042 156.387 41.3042 156.051H115.421C115.421 156.396 115.421 156.724 115.421 157.061H41.3042ZM115.471 159.21C115.48 159.547 115.488 159.892 115.505 160.22H41.2367C41.2451 159.884 41.2536 159.547 41.2705 159.21H115.471ZM64.1099 147.746C64.0424 148.074 64.017 148.419 64.0086 148.765H41.1269C41.1101 148.402 41.0847 148.039 41.0594 147.677H64.1268C64.1268 147.677 64.1099 147.72 64.1099 147.746ZM94.6413 147.746C94.6413 147.746 94.6244 147.703 94.6244 147.685H115.682C115.657 148.039 115.64 148.402 115.615 148.773H94.7427C94.7427 148.419 94.7173 148.083 94.6413 147.754V147.746ZM94.7089 149.438H115.581C115.564 149.775 115.547 150.111 115.539 150.448H94.5147C94.6076 150.103 94.6751 149.757 94.7089 149.438ZM115.615 162.655C115.632 162.992 115.649 163.337 115.674 163.665H41.0678C41.0932 163.337 41.1101 162.992 41.1269 162.655H115.606H115.615ZM115.716 164.338C115.733 164.606 115.75 164.874 115.775 165.133H40.9581C40.9834 164.874 41.0003 164.606 41.0172 164.338H115.716ZM115.733 147.012H94.4218C94.2867 146.658 94.1347 146.313 93.9659 146.002H115.809C115.784 146.33 115.758 146.675 115.733 147.012ZM94.312 151.13H115.513C115.505 151.398 115.497 151.657 115.488 151.924H93.873C94.0587 151.674 94.2107 151.406 94.312 151.13ZM115.53 160.894C115.547 161.256 115.556 161.619 115.573 161.982H41.1692C41.186 161.628 41.2029 161.256 41.2114 160.894H115.522H115.53ZM41.2114 150.457C41.1945 150.12 41.186 149.775 41.1692 149.447H64.0424C64.0762 149.775 64.1521 150.111 64.2366 150.457H41.2029H41.2114ZM64.3295 147.012H41.0087C40.9834 146.675 40.9581 146.33 40.9327 146.002H64.7854C64.625 146.313 64.4645 146.658 64.3295 147.012ZM115.834 165.815C115.868 166.151 115.893 166.497 115.927 166.825H40.8061C40.8399 166.488 40.8736 166.151 40.899 165.815H115.834ZM115.868 145.32H93.6112C93.5521 145.216 93.493 145.104 93.4508 145.009C93.3664 144.837 93.3157 144.69 93.2819 144.517H115.944C115.919 144.776 115.893 145.044 115.868 145.311V145.32ZM92.4292 150.258C92.4038 150.439 92.2687 150.655 92.083 150.836C91.9732 150.94 91.8466 151.035 91.6946 151.113C91.5088 151.216 91.2809 151.294 91.0107 151.372C90.7489 151.441 90.445 151.501 90.065 151.553L89.3051 151.639C88.3425 151.743 87.3547 151.803 86.3837 151.821C86.0797 151.821 85.7589 151.821 85.4464 151.821C85.0327 151.821 84.5683 151.803 84.1039 151.777C83.9013 151.76 83.6818 151.752 83.4369 151.726C83.1076 151.691 82.7108 151.657 82.3308 151.587L82.0606 151.536C81.7313 151.475 81.4696 151.398 81.2838 151.311C81.1319 151.242 81.0221 151.164 80.9461 151.061C80.7519 150.819 80.5577 150.189 80.5746 149.835C80.5999 149.792 80.7688 149.654 81.2247 149.559C81.8749 149.421 82.8628 149.412 83.5805 149.412H85.3705C85.4971 149.403 85.6238 149.403 85.7504 149.403C86.1304 149.403 86.5103 149.403 86.8903 149.412C87.3969 149.412 87.895 149.438 88.4016 149.455C88.9251 149.481 89.4233 149.507 90.1832 149.567C90.6645 149.611 91.8043 149.697 92.2687 149.947C92.4376 150.034 92.4545 150.111 92.4376 150.249L92.4292 150.258ZM92.4292 153.09L92.598 153.003C92.826 152.882 93.0286 152.744 93.2144 152.598H115.463C115.463 152.934 115.446 153.271 115.437 153.608H90.4787C91.0951 153.521 91.7621 153.392 92.4207 153.09H92.4292ZM115.437 154.29C115.437 154.652 115.437 155.006 115.437 155.377H41.3127C41.3127 155.015 41.3127 154.652 41.3127 154.29H115.446H115.437ZM41.2958 153.616C41.2958 153.271 41.2789 152.943 41.2705 152.606H65.5284C65.7142 152.753 65.9168 152.891 66.1364 153.012C66.1955 153.046 66.2546 153.072 66.3137 153.098C66.9807 153.409 67.6393 153.53 68.2556 153.616H41.2874H41.2958ZM76.4289 151.587C76.0405 151.648 75.6436 151.691 75.3143 151.726C75.0695 151.752 74.85 151.769 74.6473 151.777C74.1829 151.803 73.727 151.821 73.3133 151.821C72.9924 151.821 72.68 151.821 72.3676 151.821C71.3966 151.803 70.4172 151.743 69.4462 151.639L69.1169 151.605L68.9987 151.587L68.6863 151.553C68.3063 151.501 68.0108 151.449 67.749 151.38C67.4873 151.311 67.2509 151.225 67.0651 151.121C66.9131 151.044 66.778 150.94 66.6683 150.836C66.491 150.655 66.3643 150.439 66.3305 150.189C66.3305 150.129 66.3305 150.051 66.4994 149.956C66.9638 149.706 68.0952 149.619 68.5849 149.576C69.3448 149.516 69.8515 149.49 70.3665 149.464C70.8731 149.438 71.3713 149.429 71.8779 149.421C72.3845 149.412 72.8826 149.412 73.3892 149.412H75.2046C75.9138 149.429 76.8933 149.438 77.535 149.576C77.9994 149.671 78.1682 149.809 78.202 149.921C78.2104 150.223 78.0078 150.836 77.822 151.07C77.7376 151.173 77.6363 151.251 77.4843 151.311C77.2985 151.398 77.0368 151.467 76.6991 151.536L76.4373 151.579L76.4289 151.587ZM41.262 151.924C41.262 151.657 41.2451 151.389 41.2367 151.13H64.4477C64.549 151.415 64.701 151.674 64.8867 151.924H41.262ZM65.3004 145.009C65.2582 145.104 65.1991 145.216 65.14 145.32H40.8736C40.8483 145.052 40.823 144.785 40.7976 144.526H65.4693C65.4355 144.698 65.3849 144.837 65.3004 145.009ZM65.4609 143.473C65.4693 143.611 65.4862 143.732 65.4862 143.844H40.7217C40.6879 143.507 40.6457 143.162 40.6034 142.834H65.3596C65.3933 143.05 65.4355 143.248 65.4524 143.473H65.4609ZM40.7385 167.498H116.003C116.045 167.878 116.088 168.249 116.13 168.62H40.6119C40.6541 168.249 40.6963 167.878 40.7385 167.498ZM116.02 143.852H93.2651C93.2651 143.74 93.2819 143.619 93.2904 143.481C93.3073 143.257 93.3579 143.05 93.3833 142.842H116.13C116.088 143.17 116.054 143.516 116.012 143.852H116.02ZM92.3616 137.369C92.235 138.621 91.9985 139.562 91.779 140.46C91.551 141.366 91.34 142.221 91.2471 143.283C91.1458 144.405 91.1711 145.018 91.6101 145.924C91.703 146.114 91.8128 146.321 91.931 146.546C92.1421 146.943 92.3785 147.392 92.5305 147.815C91.855 147.616 91.0698 147.539 90.3436 147.478C89.55 147.409 89.0265 147.383 88.4861 147.357C87.9626 147.331 87.4475 147.314 86.924 147.306C86.5272 147.306 86.1304 147.297 85.7251 147.297H83.5382C82.7446 147.314 81.6554 147.323 80.811 147.504C80.7097 147.53 80.5999 147.547 80.507 147.582C80.4902 146.934 80.4817 146.183 80.4817 145.346V139.087C80.4817 132.725 82.1366 131.732 82.9388 131.257C85.59 129.668 89.0011 130.894 89.7695 131.309C91.551 132.276 92.2518 133.916 92.3869 134.727C92.4967 135.418 92.4967 136.1 92.3701 137.36L92.3616 137.369ZM81.7398 153.616H77.0115C77.6701 153.495 78.4215 153.314 79.0463 152.77C79.1645 152.667 79.2743 152.563 79.3672 152.442C79.4601 152.554 79.5614 152.658 79.6627 152.753C80.296 153.323 81.0643 153.504 81.7313 153.625L81.7398 153.616ZM78.2695 145.355C78.2695 146.183 78.2611 146.943 78.2442 147.59C78.1429 147.565 78.0416 147.539 77.9402 147.513C77.0959 147.34 75.9983 147.331 75.1877 147.323H73.3892C72.8742 147.314 72.3507 147.306 71.8357 147.323C71.3122 147.323 70.7971 147.349 70.2736 147.375C69.7332 147.401 69.2098 147.426 68.4161 147.495C67.6984 147.556 66.9047 147.634 66.2292 147.832C66.3812 147.401 66.6176 146.96 66.8371 146.546C66.9554 146.33 67.0651 146.123 67.1496 145.942C67.5802 145.035 67.6055 144.422 67.5126 143.3C67.4197 142.238 67.2087 141.383 66.9807 140.468C66.7527 139.562 66.5163 138.621 66.3981 137.378C66.3812 137.214 66.3643 137.058 66.3559 136.912C66.3559 136.886 66.3559 136.851 66.3559 136.842C66.3559 136.765 66.3474 136.678 66.3305 136.601C66.3052 136.247 66.2968 135.945 66.2968 135.677C66.3221 135.556 66.3305 135.435 66.3137 135.314C66.3305 135.116 66.3474 134.935 66.3812 134.745C66.5163 133.933 67.2171 132.302 68.9987 131.326C69.767 130.912 73.1697 129.677 75.8294 131.274C76.6231 131.749 78.2864 132.75 78.2864 139.104V145.363L78.2695 145.355ZM65.0049 141.09C65.0978 141.452 65.1822 141.806 65.2582 142.169H40.519C40.4683 141.806 40.4261 141.444 40.367 141.09H65.0049ZM40.519 169.294H116.214C116.265 169.665 116.316 170.045 116.366 170.407H40.367C40.4177 170.045 40.4683 169.665 40.519 169.294ZM116.223 142.16H93.493C93.569 141.798 93.6535 141.444 93.7463 141.081H116.375C116.324 141.435 116.273 141.798 116.223 142.16ZM57.1779 58.1188C57.0512 58.231 56.9246 58.3518 56.8233 58.4641C56.7219 58.5763 56.6122 58.6885 56.5362 58.8008C56.4433 58.9216 56.3589 59.0511 56.2998 59.1633C56.2322 59.2756 56.1816 59.3964 56.1393 59.4914C56.0465 59.7245 55.9958 59.9489 55.9958 60.1648C55.9958 60.2338 55.9958 60.3115 56.0211 60.3806L56.0633 60.5791C56.0633 60.5791 56.0633 60.5964 56.0633 60.605L56.7304 63.9028L46.7418 65.8711C45.5851 66.1819 45.3318 66.0524 45.3149 66.0438C45.3149 66.0438 45.1291 65.8539 45.146 64.9301C45.4922 60.7259 45.8468 56.5217 46.193 52.3261C46.2436 52.3002 46.3112 52.2743 46.4294 52.2397C57.4734 49.9693 69.0409 47.7161 79.249 45.7305C86.5272 44.3147 94.0503 42.8471 101.464 41.3709L101.632 41.3363C102.392 41.1637 102.848 41.1205 102.958 41.1723C102.958 41.1723 102.975 41.2068 102.983 41.2759C103.085 43.9953 102.798 46.8182 102.511 49.5549C102.333 51.2901 102.148 53.0771 102.055 54.8296C101.784 55.08 100.56 55.503 96.4229 56.1245C95.5617 56.254 94.8018 56.3663 94.1769 56.4958L93.4002 52.6282C93.3833 52.5246 93.3495 52.421 93.3073 52.3261C93.2735 52.2397 93.2313 52.1534 93.1553 52.0412C93.1046 51.9548 93.0455 51.8858 92.9949 51.8253C92.9104 51.7218 92.8091 51.6268 92.6994 51.5405C92.5896 51.4541 92.4714 51.3764 92.3532 51.2987C92.2265 51.221 92.0914 51.1606 91.931 51.0829C91.6693 50.9621 91.3822 50.8671 91.0276 50.7721C90.7827 50.7031 90.5125 50.6513 90.1748 50.5908C89.7779 50.5218 89.3558 50.47 88.8829 50.4268C88.4016 50.3836 87.9204 50.3578 87.4053 50.3405C86.924 50.3232 86.3921 50.3232 85.742 50.3405C84.5177 50.375 83.2512 50.4527 81.9931 50.5822C80.7772 50.7031 79.5192 50.8585 78.1429 51.0743C76.6991 51.2987 75.2299 51.5664 73.7776 51.8771C72.9586 52.0498 72.165 52.2311 71.4304 52.4124C70.1385 52.7232 68.8636 53.0685 67.6393 53.4311C66.778 53.6814 65.9422 53.9491 65.14 54.2253C64.5574 54.4239 63.9495 54.6397 63.3416 54.8728C62.7843 55.0886 62.227 55.3131 61.6951 55.5375C61.1885 55.7533 60.6988 55.9864 60.226 56.2109C59.7531 56.444 59.3394 56.6684 58.9594 56.8929C58.5626 57.1173 58.2164 57.3418 57.904 57.5662C57.6423 57.7562 57.389 57.9547 57.161 58.1533L57.1779 58.1188ZM58.8159 63.8165L58.7906 63.7043L58.7737 63.6007L58.0813 60.1907C58.0813 60.1907 58.1235 60.1216 58.1573 60.0698C58.1995 60.0094 58.2502 59.9576 58.3093 59.8971C58.3768 59.8281 58.4444 59.759 58.5204 59.6899C58.6893 59.5432 58.875 59.3964 59.0777 59.2497C59.3478 59.0597 59.6349 58.8698 59.9811 58.6713C60.3188 58.4727 60.6988 58.2741 61.121 58.0583C61.5516 57.8425 62.016 57.6353 62.4888 57.4281C62.9954 57.2123 63.5189 56.9965 64.0508 56.7979C64.6419 56.5735 65.2245 56.3576 65.7817 56.1677C66.5585 55.9001 67.3691 55.6411 68.205 55.3994C69.3786 55.0454 70.6198 54.7174 71.8948 54.4066C72.6209 54.2339 73.3977 54.0526 74.1914 53.8886C75.6267 53.5865 77.0537 53.3275 78.4469 53.1117C79.7725 52.9045 80.9968 52.7491 82.1873 52.6368C83.4116 52.516 84.619 52.4383 85.7842 52.4124C86.4006 52.4038 86.8987 52.4038 87.3462 52.4124C87.8191 52.4297 88.2666 52.4469 88.7056 52.4901C89.1193 52.5246 89.4908 52.5764 89.8286 52.6368C90.0988 52.6886 90.3183 52.7318 90.5125 52.7836C90.7574 52.8527 90.9516 52.9131 91.112 52.9822C91.1795 53.0167 91.2471 53.0426 91.3146 53.0858C91.34 53.103 91.3737 53.1203 91.4159 53.1548L93.9659 65.7503C93.6197 65.6812 93.2566 65.6208 92.8513 65.5776C92.1927 65.4999 91.4835 65.4567 90.6983 65.4395C89.8708 65.4222 89.0265 65.4395 88.1906 65.474C87.3462 65.5085 86.4512 65.5776 85.3789 65.6726C84.3995 65.7675 83.3778 65.8884 82.3477 66.0352C81.267 66.1905 80.1355 66.3718 78.9957 66.579C77.0452 66.9416 75.1117 67.3646 73.271 67.8394C72.2663 68.0984 71.2362 68.3833 70.223 68.6855C69.2351 68.9876 68.281 69.2984 67.3944 69.6092C66.5163 69.92 65.6635 70.2394 64.8529 70.5761C64.0255 70.9214 63.3162 71.2494 62.6914 71.5689C62.0835 71.871 61.5347 72.1818 61.0196 72.5098C60.8845 72.5962 60.7494 72.6825 60.6228 72.7775L60.437 71.8365V71.8019L58.8159 63.8165ZM52.154 134.546C52.1709 134.425 52.1963 134.313 52.2385 134.201C52.2807 134.089 52.3398 133.976 52.4158 133.873C52.5002 133.752 52.6015 133.631 52.7198 133.51C52.8886 133.346 53.0913 133.182 53.3446 133.001C53.6063 132.819 53.8681 132.664 54.1551 132.491L54.3662 132.362C54.5604 132.241 54.7631 132.12 54.9573 131.982C55.0839 131.896 55.2021 131.809 55.3288 131.723C55.5652 131.55 55.7678 131.378 55.9536 131.197C56.1562 130.998 56.3335 130.791 56.494 130.575C56.6544 130.35 56.7979 130.109 56.9161 129.867C57.0259 129.643 57.1272 129.392 57.2116 129.125C57.2792 128.909 57.3383 128.684 57.3974 128.46C57.4481 128.244 57.4987 128.02 57.5409 127.795C57.5832 127.597 57.6169 127.389 57.6676 127.148L57.7942 126.517C57.8618 126.189 57.9378 125.861 58.0138 125.542C58.3093 124.273 58.6893 122.987 59.1283 121.726C59.5589 120.483 60.0655 119.249 60.6228 118.04C61.1463 116.909 61.7289 115.795 62.3453 114.725C62.9701 113.654 63.6455 112.601 64.3632 111.591C65.7817 109.588 67.3775 107.706 69.1169 105.997L72.1481 103.131C72.3507 102.941 72.5449 102.751 72.7391 102.561C72.9164 102.388 73.1022 102.207 73.2795 102.026L73.499 101.801C73.5581 101.741 73.6088 101.689 73.6679 101.629C73.879 101.396 74.0563 101.137 74.1914 100.86C74.2674 100.696 74.3349 100.524 74.3771 100.368C74.4362 100.161 74.4616 99.9453 74.4531 99.6863C74.4447 99.4705 74.394 99.1683 74.318 98.9439C74.2336 98.6849 74.1154 98.4604 73.9634 98.2619C73.8874 98.1583 73.7945 98.0633 73.6763 97.9684C73.5834 97.8907 73.4737 97.813 73.3555 97.7439C73.2457 97.6835 73.1359 97.6317 73.0262 97.5885C72.9249 97.5453 72.8235 97.5108 72.7307 97.4763C68.3316 95.836 64.4392 92.3138 62.3115 88.0491C62.0835 87.5916 61.8724 87.1254 61.6867 86.6679L61.5769 86.383C60.6903 84.0952 60.2428 81.6867 60.2428 79.2263C60.2428 77.2062 60.6312 75.7645 60.7579 75.4019C61.0956 75.0566 61.5178 74.7199 62.0751 74.3659C62.5057 74.0897 62.9954 73.8221 63.5611 73.5285C64.1859 73.2091 64.8529 72.907 65.596 72.5962C66.3559 72.2768 67.1496 71.9746 68.0277 71.6638C68.9058 71.353 69.8261 71.0595 70.7718 70.7746C71.7259 70.4897 72.7222 70.2135 73.7354 69.9545C75.5761 69.4797 77.459 69.0653 79.325 68.72C80.4311 68.5128 81.5287 68.3401 82.5926 68.1848C83.5889 68.0466 84.5768 67.9258 85.5309 67.8308C86.4765 67.7358 87.3631 67.6754 88.2328 67.6322C89.0687 67.5977 89.8539 67.5891 90.6138 67.5977C91.34 67.615 91.9817 67.6495 92.5811 67.7186C93.0793 67.779 93.4846 67.8481 93.8561 67.943C94.1432 68.0207 94.4471 68.1243 94.692 68.2279C95.4604 69.1257 96.1696 70.3257 96.7944 71.7847C97.7147 74.0465 98.2382 76.7573 98.2382 79.2176C98.2382 87.2376 93.5184 94.3253 86.2317 97.2777C86.0881 97.3382 85.9446 97.39 85.8095 97.4418C85.5815 97.5281 85.362 97.6403 85.1594 97.7784C85.0918 97.8216 85.0243 97.8734 84.9736 97.9166C84.8892 97.9856 84.8048 98.0633 84.7288 98.141C84.6443 98.2273 84.5599 98.3223 84.4923 98.4259C84.4164 98.5295 84.3488 98.6504 84.2813 98.7799C84.2137 98.918 84.1631 99.0561 84.1293 99.1942C84.0955 99.3065 84.0786 99.4273 84.0702 99.5396C84.0702 99.6173 84.0617 99.6949 84.0617 99.764C84.0617 99.9626 84.0955 100.161 84.1462 100.36C84.1884 100.524 84.2559 100.696 84.3319 100.86C84.467 101.137 84.6443 101.396 84.8554 101.629C84.9145 101.698 84.9736 101.758 85.0327 101.819L85.2438 102.034C85.4211 102.216 85.5984 102.388 85.7842 102.57C85.9784 102.76 86.181 102.95 86.3752 103.139L88.8998 105.514C89.0687 105.678 89.2375 105.842 89.4064 106.006C91.1373 107.715 92.7416 109.597 94.1601 111.6C94.8777 112.61 95.5532 113.672 96.178 114.734C96.8028 115.804 97.3854 116.926 97.9005 118.049C98.4578 119.257 98.9644 120.492 99.395 121.735C99.834 122.987 100.206 124.273 100.51 125.551C100.586 125.879 100.661 126.198 100.729 126.517L100.847 127.096C100.889 127.329 100.94 127.562 100.982 127.795C101.025 128.02 101.075 128.235 101.126 128.46C101.177 128.684 101.244 128.909 101.312 129.125C101.396 129.401 101.497 129.643 101.607 129.867C101.734 130.126 101.869 130.359 102.029 130.575C102.181 130.791 102.367 130.998 102.57 131.197C102.755 131.378 102.958 131.55 103.195 131.723C103.313 131.809 103.439 131.896 103.566 131.982C103.76 132.112 103.954 132.232 104.157 132.353L104.41 132.509C104.681 132.673 104.934 132.828 105.179 133.001C105.432 133.173 105.635 133.337 105.804 133.51C105.93 133.631 106.032 133.752 106.108 133.873C106.183 133.985 106.243 134.097 106.285 134.201C106.327 134.313 106.352 134.425 106.369 134.546C106.369 134.624 106.378 134.701 106.369 134.822V135.047V135.133C106.352 135.409 106.15 135.737 105.93 135.781H94.8693C95.3168 135.504 95.7221 135.211 96.0767 134.874C96.2962 134.676 96.4989 134.46 96.6762 134.235C96.7775 134.106 96.8788 133.976 96.9717 133.83C97.0899 133.657 97.1997 133.476 97.3095 133.286C97.4277 133.07 97.5374 132.845 97.6303 132.612C97.6641 132.526 97.6979 132.44 97.7316 132.353C97.8667 131.999 97.9849 131.62 98.0863 131.231C98.1538 130.972 98.2045 130.696 98.2551 130.428C98.3227 130.031 98.3649 129.617 98.3987 129.168C98.4155 128.935 98.424 128.702 98.4324 128.477C98.4324 128.132 98.4324 127.769 98.4324 127.355C98.4071 126.63 98.3564 125.87 98.272 125.093C98.12 123.738 97.8752 122.33 97.5374 120.906C97.4445 120.509 97.3432 120.12 97.2419 119.723C97.0984 119.188 96.9379 118.644 96.7691 118.109C96.5833 117.539 96.3891 116.961 96.1865 116.408C96.0429 116.02 95.8994 115.631 95.739 115.251C95.3844 114.371 94.996 113.464 94.5569 112.541C94.4387 112.29 94.2276 112.1 93.9743 112.006C93.7126 111.911 93.4339 111.928 93.1891 112.049C92.9442 112.17 92.7585 112.377 92.6656 112.644C92.5727 112.912 92.5896 113.197 92.7078 113.447C93.1215 114.328 93.5015 115.2 93.8392 116.046C93.9827 116.408 94.1263 116.78 94.2614 117.151C94.4556 117.686 94.6413 118.23 94.8186 118.765C94.9791 119.274 95.1311 119.784 95.2662 120.293C95.3675 120.664 95.4603 121.036 95.5532 121.407C95.8656 122.745 96.102 124.066 96.2456 125.335C96.3216 126.051 96.3722 126.751 96.3976 127.415C96.406 127.752 96.406 128.089 96.3976 128.425C96.3976 128.624 96.3807 128.831 96.3722 129.03C96.3469 129.409 96.3131 129.746 96.254 130.074C96.2203 130.29 96.1696 130.506 96.1189 130.713C96.0429 131.015 95.9501 131.309 95.8487 131.576L95.7643 131.775C95.6968 131.939 95.6208 132.094 95.5363 132.25C95.4688 132.379 95.3928 132.5 95.3084 132.621C95.2493 132.707 95.1817 132.794 95.1142 132.88C94.996 133.027 94.8609 133.173 94.7089 133.312C94.5738 133.432 94.4303 133.553 94.2698 133.674C93.9405 132.647 93.0455 130.687 90.7658 129.453C89.5584 128.797 85.3536 127.389 81.934 129.444C81.1065 129.945 80.1186 130.73 79.4094 132.491C78.7086 130.73 77.7207 129.936 76.8848 129.444C73.4652 127.389 69.2604 128.797 68.053 129.453C65.6804 130.739 64.8107 132.794 64.5068 133.821C64.2704 133.666 64.0508 133.493 63.8566 133.312C63.7131 133.173 63.578 133.035 63.4513 132.889C63.3838 132.802 63.3162 132.716 63.2571 132.63C63.1727 132.509 63.0967 132.388 63.0292 132.258C62.9447 132.112 62.8687 131.956 62.8012 131.784L62.7252 131.585C62.6239 131.309 62.531 131.024 62.455 130.722C62.4044 130.515 62.3621 130.299 62.3199 130.083C62.2693 129.763 62.227 129.427 62.2017 129.038C62.1848 128.84 62.1764 128.633 62.1764 128.434C62.1764 128.106 62.1764 127.769 62.1764 127.424C62.1933 126.768 62.2439 126.06 62.3284 125.335C62.4719 124.066 62.6999 122.745 63.0207 121.407C63.1136 121.036 63.2065 120.656 63.3078 120.293C63.4429 119.801 63.5949 119.283 63.7553 118.774C63.9242 118.238 64.1099 117.695 64.3126 117.159C64.4477 116.788 64.5912 116.426 64.7347 116.054C65.0725 115.2 65.444 114.354 65.8662 113.456C65.9844 113.205 66.0013 112.921 65.9084 112.653C65.8155 112.385 65.6297 112.178 65.3849 112.057C65.14 111.936 64.8614 111.919 64.5996 112.014C64.3379 112.109 64.1353 112.299 64.0086 112.549C63.5695 113.49 63.1812 114.38 62.835 115.26C62.683 115.64 62.531 116.028 62.3875 116.417C62.1764 116.987 61.9822 117.556 61.8049 118.126C61.6276 118.67 61.4671 119.214 61.332 119.741C61.2223 120.129 61.1294 120.526 61.0281 120.923C60.6903 122.348 60.4455 123.764 60.2935 125.11C60.2091 125.896 60.15 126.656 60.1331 127.372C60.1246 127.752 60.1162 128.123 60.1331 128.494C60.1331 128.727 60.15 128.961 60.1668 129.185C60.2006 129.651 60.2428 130.057 60.3104 130.437C60.3526 130.704 60.4117 130.981 60.4793 131.24C60.5721 131.628 60.6988 132.008 60.8339 132.362L60.9352 132.621C61.0365 132.863 61.1463 133.078 61.256 133.286C61.3574 133.467 61.4671 133.648 61.5938 133.83C61.6867 133.968 61.788 134.097 61.8893 134.227C62.0666 134.451 62.2693 134.667 62.4972 134.874C62.8519 135.202 63.2571 135.504 63.7046 135.781H52.7113C52.4158 135.737 52.2131 135.401 52.1963 135.142V134.814C52.1878 134.693 52.1963 134.615 52.1963 134.546H52.154ZM39.6409 139.743C39.1174 139.743 38.6952 139.303 38.6952 138.768C38.6952 138.232 39.1258 137.792 39.6493 137.792H52.0949C52.1963 137.818 52.2976 137.852 52.4073 137.87C52.4327 137.87 52.534 137.878 52.5509 137.878H64.3717C64.4561 138.578 64.5659 139.182 64.6841 139.743H63.1727C63.1727 139.743 63.1727 139.743 63.1643 139.743H39.6325H39.6409ZM116.907 171.754C117.43 171.754 117.861 172.194 117.861 172.73C117.861 173.265 117.43 173.705 116.907 173.705H39.6493C39.1258 173.705 38.6952 173.265 38.6952 172.73C38.6952 172.194 39.1258 171.754 39.6493 171.754H116.907ZM116.924 139.743H94.0672C94.1854 139.191 94.2952 138.595 94.3796 137.878H105.947C105.947 137.878 106.065 137.878 106.082 137.87C106.192 137.852 106.293 137.827 106.403 137.792H116.915C117.439 137.792 117.869 138.232 117.869 138.768C117.869 139.303 117.447 139.734 116.924 139.743Z" fill="var(--fill-0, #2A347B)"/>
<path id="Vector_2" d="M38.1277 13.9005C37.8781 14.2375 37.9446 14.7092 38.2775 14.9619C38.4106 15.063 38.5687 15.1136 38.7268 15.1136C38.9514 15.1136 39.1761 15.0125 39.3258 14.8103L42.7456 10.194L43.5526 15.9054C43.6026 16.2845 43.9271 16.5541 44.2932 16.5541C44.3264 16.5541 44.368 16.5541 44.4013 16.5541C44.809 16.4951 45.0919 16.1076 45.0337 15.6948L44.2266 9.98345L48.7862 13.4457C48.9193 13.5467 49.0774 13.5973 49.2355 13.5973C49.4602 13.5973 49.6848 13.4962 49.8346 13.294C50.0842 12.9571 50.0176 12.4853 49.6848 12.2326L45.1252 8.77042L50.7665 7.9533C51.1742 7.89433 51.4571 7.50684 51.3988 7.09407C51.3406 6.6813 50.9579 6.38647 50.5502 6.45386L44.9089 7.27939L48.3286 2.6547C48.5782 2.31775 48.5116 1.84601 48.1788 1.59329C47.846 1.34058 47.3801 1.40797 47.1304 1.74492L43.7107 6.36119L42.8953 0.649823C42.8371 0.237054 42.4627 -0.0577809 42.0466 0.00960989C41.6389 0.0685769 41.356 0.456074 41.4143 0.868843L42.2297 6.58021L37.6701 3.11801C37.3372 2.8653 36.8713 2.93269 36.6217 3.26964C36.3721 3.60659 36.4386 4.07833 36.7715 4.33105L41.3311 7.79325L35.6898 8.61036C35.2821 8.66933 34.9992 9.05683 35.0574 9.4696C35.1074 9.84867 35.4319 10.1182 35.798 10.1182C35.8312 10.1182 35.8728 10.1182 35.9061 10.1182L41.5474 9.30112L38.1277 13.9174V13.9005Z" fill="var(--fill-0, #EFB424)"/>
<path id="Vector_3" d="M159.213 53.7446L153.572 54.5609L156.991 49.9493C157.241 49.6127 157.174 49.1414 156.842 48.889C156.509 48.6365 156.043 48.7038 155.793 49.0405L152.374 53.652L151.558 47.9465C151.5 47.5341 151.117 47.2396 150.709 47.3069C150.302 47.3658 150.019 47.7529 150.077 48.1653L150.884 53.8708L146.325 50.4121C145.992 50.1597 145.526 50.227 145.276 50.5636C145.027 50.9002 145.093 51.3715 145.426 51.6239L149.986 55.0826L144.344 55.8989C143.937 55.9578 143.654 56.3449 143.712 56.7573C143.762 57.136 144.086 57.4052 144.452 57.4052C144.486 57.4052 144.527 57.4052 144.561 57.4052L150.202 56.5805L146.782 61.2005C146.533 61.5372 146.599 62.0084 146.932 62.2609C147.065 62.3618 147.223 62.4123 147.381 62.4123C147.606 62.4123 147.831 62.3114 147.98 62.1094L151.4 57.4978L152.207 63.2034C152.257 63.5821 152.582 63.8514 152.948 63.8514C152.981 63.8514 153.023 63.8514 153.056 63.8514C153.464 63.7924 153.746 63.4053 153.688 62.993L152.873 57.2874L157.441 60.7461C157.574 60.8471 157.732 60.8976 157.89 60.8976C158.115 60.8976 158.339 60.7966 158.489 60.5946C158.739 60.258 158.672 59.7868 158.339 59.5343L153.78 56.0756L159.421 55.2593C159.829 55.2004 160.112 54.8133 160.053 54.401C159.995 53.9886 159.621 53.6941 159.205 53.7614L159.213 53.7446Z" fill="var(--fill-0, #EFB424)"/>
<path id="Vector_4" d="M26.0153 96.3122L20.374 97.1369L23.7937 92.5169C24.0433 92.1803 23.9767 91.709 23.6439 91.4566C23.3111 91.2041 22.8452 91.2714 22.5955 91.608L19.1758 96.2196L18.3604 90.514C18.3022 90.1017 17.9194 89.8072 17.5117 89.8745C17.104 89.9334 16.8211 90.3205 16.8794 90.7328L17.6948 96.4384L13.1352 92.9797C12.8024 92.7273 12.3364 92.7946 12.0868 93.1312C11.8372 93.4678 11.9037 93.9391 12.2366 94.1915L16.7962 97.6502L11.1549 98.4665C10.7472 98.5254 10.4643 98.9125 10.5226 99.3248C10.5725 99.7035 10.897 99.9728 11.2631 99.9728C11.2964 99.9728 11.338 99.9728 11.3712 99.9728L17.0125 99.1565L13.5928 103.768C13.3432 104.105 13.4098 104.576 13.7426 104.828C13.8757 104.929 14.0338 104.98 14.1919 104.98C14.4165 104.98 14.6412 104.879 14.791 104.677L18.2107 100.065L19.0261 105.771C19.076 106.15 19.4005 106.419 19.7666 106.419C19.7999 106.419 19.8415 106.419 19.8748 106.419C20.2825 106.36 20.5654 105.973 20.5071 105.561L19.6917 99.855L24.2513 103.314C24.3844 103.415 24.5425 103.465 24.7006 103.465C24.9253 103.465 25.1499 103.364 25.2997 103.162C25.5493 102.826 25.4827 102.354 25.1499 102.102L20.5903 98.6432L26.2316 97.8269C26.6393 97.768 26.9222 97.3809 26.8639 96.9686C26.8057 96.5562 26.4313 96.2617 26.0153 96.329V96.3122Z" fill="var(--fill-0, #EFB424)"/>
<path id="Vector_5" d="M92.7701 7.73227C92.7701 7.73227 92.8176 7.73227 92.8413 7.73227L95.9032 7.22752L94.0518 10.0487C93.8936 10.283 93.9411 10.6255 94.1468 10.8058C94.2338 10.8779 94.3287 10.914 94.4316 10.914C94.574 10.914 94.7164 10.8419 94.8113 10.6977L96.6627 7.87648L97.1057 11.3646C97.1374 11.635 97.3431 11.8243 97.5725 11.8243C97.5963 11.8243 97.62 11.8243 97.6437 11.8243C97.9048 11.7793 98.0868 11.5089 98.0472 11.2114L97.6042 7.72326L100.081 9.83238C100.168 9.90448 100.263 9.94054 100.365 9.94054C100.508 9.94054 100.65 9.86843 100.745 9.72422C100.903 9.48987 100.856 9.14736 100.65 8.9671L98.1738 6.85798L101.236 6.35323C101.497 6.30816 101.679 6.03776 101.639 5.74032C101.6 5.44288 101.354 5.24459 101.101 5.28064L98.0393 5.78539L99.8907 2.96422C100.049 2.72987 100.001 2.38736 99.7957 2.2071C99.5821 2.02683 99.2894 2.08091 99.1311 2.31526L97.2798 5.13643L96.8367 1.64827C96.7972 1.35083 96.5519 1.14352 96.2987 1.18859C96.0377 1.23366 95.8557 1.50406 95.8952 1.8015L96.3383 5.28966L93.8619 3.18054C93.6562 3.00027 93.3556 3.05435 93.1974 3.2887C93.0391 3.52304 93.0866 3.86555 93.2923 4.04582L95.7687 6.15494L92.7068 6.65968C92.4457 6.70475 92.2638 6.97515 92.3033 7.27259C92.335 7.54299 92.5407 7.73227 92.7701 7.73227Z" fill="var(--fill-0, #EFB424)"/>
<path id="Vector_6" d="M9.90363 53.7604L6.45907 54.2651L8.54182 51.4439C8.71984 51.2096 8.66643 50.8671 8.43502 50.6868C8.2036 50.5066 7.86537 50.5606 7.68736 50.795L5.6046 53.6162L5.10616 50.128C5.06166 49.8306 4.78574 49.6233 4.50092 49.6683C4.2072 49.7134 4.00248 49.9838 4.04698 50.2812L4.54542 53.7694L1.75951 51.6603C1.52809 51.48 1.18987 51.5341 1.01186 51.7684C0.833842 52.0028 0.887246 52.3453 1.11866 52.5255L3.90457 54.6347L0.460014 55.1394C0.166292 55.1845 -0.0384238 55.4549 0.00607952 55.7523C0.0416822 56.0227 0.2731 56.212 0.531219 56.212C0.557921 56.212 0.584623 56.212 0.611325 56.212L4.05589 55.7073L1.97313 58.5284C1.79511 58.7628 1.84852 59.1053 2.07994 59.2855C2.17784 59.3577 2.28465 59.3937 2.40036 59.3937C2.56057 59.3937 2.72078 59.3216 2.82759 59.1774L4.91035 56.3562L5.40879 59.8444C5.44439 60.1148 5.67581 60.3041 5.93393 60.3041C5.96063 60.3041 5.98733 60.3041 6.01403 60.3041C6.30776 60.259 6.51247 59.9886 6.46797 59.6911L5.96953 56.203L8.75544 58.3121C8.85335 58.3842 8.96016 58.4203 9.07586 58.4203C9.23608 58.4203 9.39629 58.3482 9.5031 58.2039C9.68111 57.9696 9.62771 57.6271 9.39629 57.4468L6.61038 55.3377L10.0549 54.833C10.3487 54.7879 10.5534 54.5175 10.5089 54.2201C10.4644 53.9226 10.1884 53.7243 9.90363 53.7604Z" fill="var(--fill-0, #EFB424)"/>
<path id="Vector_7" d="M138.488 101.058L135.426 101.562L137.277 98.7413C137.435 98.5069 137.388 98.1644 137.182 97.9841C136.977 97.8039 136.676 97.8579 136.518 98.0923L134.666 100.913L134.223 97.4253C134.184 97.1279 133.938 96.9206 133.685 96.9656C133.424 97.0107 133.242 97.2811 133.282 97.5785L133.725 101.067L131.248 98.9576C131.043 98.7773 130.742 98.8314 130.584 99.0657C130.426 99.3001 130.473 99.6426 130.679 99.8228L133.155 101.932L130.093 102.437C129.832 102.482 129.65 102.752 129.69 103.05C129.721 103.32 129.927 103.509 130.157 103.509C130.18 103.509 130.204 103.509 130.228 103.509L133.29 103.005L131.438 105.826C131.28 106.06 131.328 106.403 131.533 106.583C131.62 106.655 131.715 106.691 131.818 106.691C131.961 106.691 132.103 106.619 132.198 106.475L134.049 103.654L134.492 107.142C134.524 107.412 134.73 107.601 134.959 107.601C134.983 107.601 135.007 107.601 135.03 107.601C135.291 107.556 135.473 107.286 135.434 106.988L134.991 103.5L137.467 105.609C137.554 105.682 137.649 105.718 137.752 105.718C137.894 105.718 138.037 105.645 138.132 105.501C138.29 105.267 138.242 104.924 138.037 104.744L135.56 102.635L138.622 102.13C138.883 102.085 139.065 101.815 139.026 101.517C138.986 101.22 138.741 101.022 138.488 101.058Z" fill="var(--fill-0, #EFB424)"/>
</g>
<defs>
<clipPath id="clip0_14788_58004">
<rect width="160.061" height="175" fill="white"/>
</clipPath>
</defs>
</svg>
