<svg preserveAspectRatio="none" width="100%" height="100%" overflow="visible" style="display: block;" viewBox="0 0 28 28" fill="none" xmlns="http://www.w3.org/2000/svg">
<g id="explore">
<mask id="mask0_14788_57876" style="mask-type:alpha" maskUnits="userSpaceOnUse" x="0" y="0" width="28" height="28">
<rect id="Bounding box" width="28" height="28" fill="var(--fill-0, #D9D9D9)"/>
</mask>
<g mask="url(#mask0_14788_57876)">
<path id="explore_2" d="M13.6317 15.1667C13.3014 15.1667 13.0245 15.0549 12.801 14.8313C12.5776 14.6077 12.4659 14.3306 12.4659 14C12.4659 13.6695 12.5776 13.3924 12.801 13.1688C13.0245 12.9452 13.3014 12.8334 13.6317 12.8334C13.962 12.8334 14.2388 12.9452 14.4623 13.1688C14.6857 13.3924 14.7974 13.6695 14.7974 14C14.7974 14.3306 14.6857 14.6077 14.4623 14.8313C14.2388 15.0549 13.962 15.1667 13.6317 15.1667ZM13.6337 25.0834C12.1019 25.0834 10.662 24.7925 9.31422 24.2107C7.96639 23.6289 6.79402 22.8394 5.79709 21.8421C4.80016 20.8448 4.01084 19.672 3.42912 18.3237C2.84759 16.9754 2.55683 15.5349 2.55683 14.0021C2.55683 12.4691 2.84749 11.0281 3.42882 9.67929C4.01016 8.33042 4.79909 7.15715 5.79563 6.15945C6.79217 5.16176 7.96406 4.37183 9.31131 3.78966C10.6586 3.20769 12.098 2.9167 13.6296 2.9167C15.1614 2.9167 16.6013 3.20759 17.9491 3.78937C19.2969 4.37115 20.4693 5.16069 21.4662 6.15799C22.4632 7.1553 23.2525 8.32809 23.8342 9.67637C24.4157 11.0246 24.7065 12.4652 24.7065 13.998C24.7065 15.531 24.4158 16.9719 23.8345 18.3208C23.2532 19.6696 22.4642 20.8429 21.4677 21.8406C20.4711 22.8383 19.2992 23.6282 17.952 24.2104C16.6048 24.7924 15.1653 25.0834 13.6337 25.0834ZM13.6317 23.3334C16.2352 23.3334 18.4405 22.4292 20.2474 20.6209C22.0544 18.8125 22.9578 16.6056 22.9578 14C22.9578 11.3945 22.0544 9.18754 20.2474 7.3792C18.4405 5.57087 16.2352 4.6667 13.6317 4.6667C11.0281 4.6667 8.82285 5.57087 7.0159 7.3792C5.20896 9.18754 4.30548 11.3945 4.30548 14C4.30548 16.6056 5.20896 18.8125 7.0159 20.6209C8.82285 22.4292 11.0281 23.3334 13.6317 23.3334ZM8.79137 19.4385L15.3378 16.1718C15.4394 16.121 15.5294 16.0564 15.6079 15.9778C15.6864 15.8993 15.751 15.8091 15.8017 15.7075L19.0659 9.15604C19.1704 8.96159 19.1476 8.78961 18.9974 8.64008C18.8472 8.49055 18.6721 8.4644 18.4719 8.56162L11.9255 11.8283C11.8239 11.879 11.7339 11.9437 11.6554 12.0222C11.5769 12.1008 11.5123 12.1909 11.4616 12.2926L8.19741 18.844C8.09288 19.0459 8.11532 19.2216 8.26474 19.3711C8.41415 19.5206 8.58969 19.5431 8.79137 19.4385Z" fill="var(--fill-0, #FE4646)"/>
</g>
</g>
</svg>
