<svg preserveAspectRatio="none" width="100%" height="100%" overflow="visible" style="display: block;" viewBox="0 0 48 47.4772" fill="none" xmlns="http://www.w3.org/2000/svg">
<g id="group">
<path id="Vector" d="M14.9232 22.2191H15.0807C15.4959 22.2191 15.9255 22.1626 15.9255 21.5689V15.6466C15.9255 15.053 15.4959 14.9964 15.0807 14.9964H14.9232V14.6572C15.3814 14.6572 16.0687 14.6996 16.6557 14.6996C17.2714 14.6996 18.0017 14.6572 18.4742 14.6572V14.9964H18.331C17.9874 14.9964 17.386 14.9964 17.386 15.6466V21.5689C17.386 22.205 17.9874 22.2191 18.331 22.2191H18.4742V22.5583C18.0017 22.5583 17.2714 22.5159 16.6557 22.5159C16.04 22.5159 15.3814 22.5583 14.9232 22.5583V22.2191ZM19.5624 14.6713C20.0493 14.6713 20.5361 14.7137 21.0229 14.7137C21.5098 14.7137 22.0396 14.6713 22.555 14.6713V15.0106H22.4119C21.653 15.0106 21.0373 15.5194 20.5647 16.0141L18.7606 17.9505L21.6959 21.5972C21.9393 21.9364 22.2973 22.2191 22.7412 22.2191V22.5583C22.3689 22.5583 21.968 22.53 21.5671 22.53C21.2091 22.53 20.8511 22.5583 20.4788 22.5583C20.3786 22.3463 20.0493 21.894 19.8774 21.7103L17.4146 18.6572L19.8202 16.0141C19.9634 15.8728 20.3213 15.477 20.3213 15.2509C20.3213 15.0247 19.8345 15.0106 19.677 15.0106H19.5481V14.6713H19.5624Z" fill="var(--fill-0, white)"/>
<path id="Vector_2" d="M28.8408 20.5795L31.547 14.6713C31.8906 14.6713 32.3059 14.7137 32.7068 14.7137C33.1077 14.7137 33.523 14.6713 33.9239 14.6713V15.0106H33.8237C33.48 15.0106 32.7784 15.0388 32.7641 15.5335C32.7641 15.8304 32.7927 16.1696 32.8214 16.424L33.2509 21.5972C33.2939 22.1626 33.5802 22.205 34.2675 22.2332V22.5724C33.7377 22.5442 33.1793 22.53 32.6209 22.53C31.9909 22.53 31.3608 22.5583 30.7308 22.5724V22.2332C31.3322 22.205 31.7188 22.205 31.7188 21.6961C31.7188 21.5548 31.7188 21.4417 31.7188 21.1449L31.4038 16.3675H31.3752L28.4685 22.7279H28.1964L25.4329 16.4805H25.4043L25.0177 21.4417C25.0177 21.8092 25.1036 21.9788 25.2611 22.0777C25.4329 22.1767 25.6763 22.1908 25.9913 22.205H26.1345V22.5442C25.619 22.5159 25.0893 22.5018 24.5881 22.5018C24.1442 22.5018 23.686 22.53 23.2421 22.5442V22.205H23.3996C24.3017 22.1767 24.3447 21.7809 24.4449 20.9753L24.7886 17.8374C24.8745 17.0318 24.9317 16.2968 24.9317 15.8445C24.9317 15.2084 24.4449 14.9964 23.9438 14.9964H23.8006V14.6572C24.2588 14.6572 24.717 14.6996 25.1895 14.6996C25.5331 14.6996 25.8768 14.6572 26.2204 14.6572L28.898 20.5654L28.8408 20.5795Z" fill="var(--fill-0, white)"/>
<path id="Vector_3" d="M35.4703 15.8301C35.4703 15.0103 35.0551 15.0103 34.5826 15.0103H34.4537V14.6711C34.9405 14.6711 35.5562 14.7135 36.2722 14.7135C36.9881 14.7135 37.5322 14.6711 37.9904 14.6711V15.0103H37.8472C37.389 15.0103 36.9308 15.0103 36.9308 15.8301V19.7312C36.9308 21.1588 37.4606 22.1623 39.1073 22.1623C40.6107 22.1623 41.2837 21.2153 41.2837 19.6888V15.8301C41.2837 15.0103 40.8542 15.0103 40.4532 15.0103H40.2241V14.6711C40.6823 14.6711 41.1549 14.7135 41.6131 14.7135C42.0713 14.7135 42.4865 14.6711 42.9447 14.6711V15.0103H42.7013C42.3863 15.0103 41.971 15.0103 41.971 15.8301V19.4344C41.971 21.9927 40.5964 22.7277 38.8925 22.7277C36.6874 22.7277 35.4703 21.9362 35.4703 19.915V15.8301Z" fill="var(--fill-0, white)"/>
<path id="Vector_4" d="M18.9753 1.46997C20.0922 1.20142 21.7818 1.66785 23.3139 1.71026C24.846 1.75266 27.6238 1.51238 30.1439 2.50178C32.664 3.50532 32.5495 4.63607 34.6257 5.63961C36.7019 6.65728 37.8331 6.72795 38.7638 7.10958C39.7088 7.50534 41.3698 8.73503 42.0571 10.8835C42.6871 12.8481 43.6751 13.6821 45.6654 13.4983C41.7993 5.52653 33.5661 0 24.0155 0C19.7199 0 15.682 1.11661 12.1883 3.08129C13.391 2.85514 15.6534 3.08129 16.9421 2.36044C18.0017 1.76679 18.4169 1.59718 18.9897 1.45584L18.9753 1.46997Z" fill="var(--fill-0, white)"/>
<path id="Vector_5" d="M21.0371 45.8942C22.9128 44.9048 24.1729 43.4207 24.8745 41.8235C25.347 40.7493 25.8625 39.7457 26.3207 39.1945C27.0939 38.2899 27.8528 37.8517 28.8837 37.6963C30.6306 37.4277 32.0768 38.6291 34.6971 38.403C33.4228 38.0355 33.0505 37.7245 32.3202 37.3288C30.6306 36.3959 29.5997 36.0567 28.0389 36.2122C25.7193 36.4242 25.3613 37.4136 22.9415 38.0355C20.1923 38.7281 18.3452 37.9507 16.9419 36.8058C15.5244 35.6468 15.238 34.0213 13.4195 33.1309C11.9447 32.41 11.0283 32.7775 8.92348 32.1697C8.13595 31.9436 7.60615 31.7174 6.67544 31.2651C8.69438 32.9613 10.069 33.5549 11.1858 34.4878C13.1189 36.1132 12.5318 37.6539 15.6962 39.9012C17.6006 41.2581 21.5096 42.1627 25.6477 40.1556C23.8149 41.7246 20.0634 43.7316 14.4219 42.3182C5.93087 40.1556 0.976594 31.2793 0.0315596 22.4877C0.0315596 22.4877 -0.0113965 23.2792 0.00292218 24.1838C0.146109 33.9789 6.46066 42.5585 15.4958 45.9507C15.4958 45.9507 18.7461 47.1521 21.0371 45.8942Z" fill="var(--fill-0, white)"/>
<path id="Vector_6" d="M45.2358 25.06C42.9878 27.8303 41.5273 27.0105 39.6515 29.1165C39.5656 27.0388 40.5679 25.3709 41.6275 24.7066C43.5892 23.4628 46.3384 21.6253 46.4815 15.4062C47.2834 17.4415 47.8561 21.8232 45.2215 25.06H45.2358Z" fill="var(--fill-0, white)"/>
<path id="Vector_7" d="M34.6972 38.3888C32.3203 39.0955 31.7189 38.1344 30.1868 38.6008C28.9268 38.9824 28.1822 39.774 27.5808 42.3323C27.2658 43.6892 26.3924 44.8623 24.9319 45.7387C23.6575 46.4878 21.6815 47.0956 19.863 47.1238C19.949 47.138 21.7818 47.4772 24.0155 47.4772C37.4035 47.4772 48.0995 36.6644 47.9993 23.6325C45.0783 35.8305 38.2912 38.827 34.6972 38.3747V38.3888Z" fill="var(--fill-0, white)"/>
<path id="Vector_8" d="M38.9929 35.661C39.938 34.2334 39.7518 31.8729 39.6516 29.1167C36.4012 32.8906 38.5777 36.6645 34.6973 38.3747C36.4585 38.1627 37.8331 37.4136 38.9929 35.661Z" fill="var(--fill-0, white)"/>
<path id="Vector_9" d="M4.78554 23.5479C4.57076 20.7069 2.07931 18.0072 3.12457 14.6857C3.59709 13.1592 5.57307 12.5797 4.64235 9.71038C2.38 12.721 0.790622 16.4525 0.232193 20.4666C0.962447 23.4914 1.77861 25.4137 3.23912 27.6752C4.16984 29.1027 4.986 29.9366 6.08854 30.6999C5.55875 29.8801 5.01464 29.1875 4.68531 28.0144C3.96937 25.3713 4.92873 25.5974 4.77122 23.5338L4.78554 23.5479Z" fill="var(--fill-0, white)"/>
</g>
</svg>
