<svg preserveAspectRatio="none" width="100%" height="100%" overflow="visible" style="display: block;" viewBox="0 0 42 36.5248" fill="none" xmlns="http://www.w3.org/2000/svg">
<g id="group">
<path id="Vector" d="M14.8756 6.42645C14.8756 9.12588 12.6793 11.3148 9.96217 11.3148C7.24503 11.3148 5.05743 9.12588 5.05743 6.42645C5.05743 3.72702 7.25371 1.53806 9.96217 1.53806C12.6706 1.53806 14.8756 3.72702 14.8756 6.42645Z" fill="var(--fill-0, white)" stroke="var(--stroke-0, #393842)" stroke-width="2" stroke-linecap="round" stroke-linejoin="round"/>
<path id="Vector_2" d="M18.3914 17.1377C18.3914 14.2825 16.0736 11.9724 13.2088 11.9724H6.72417C3.85946 11.9724 1.54164 14.2825 1.54164 17.1377V25.608H18.3914V17.1377Z" fill="var(--fill-0, #ABEFFF)" stroke="var(--stroke-0, #393842)" stroke-width="2" stroke-linecap="round" stroke-linejoin="round"/>
<path id="Vector_3" d="M36.9426 6.42645C36.9426 9.12588 34.7463 11.3148 32.0291 11.3148C29.312 11.3148 27.1244 9.12588 27.1244 6.42645C27.1244 3.72702 29.3207 1.53806 32.0291 1.53806C34.7376 1.53806 36.9426 3.72702 36.9426 6.42645Z" fill="var(--fill-0, white)" stroke="var(--stroke-0, #393842)" stroke-width="2" stroke-linecap="round" stroke-linejoin="round"/>
<path id="Vector_4" d="M40.4584 17.1377C40.4584 14.2825 38.1405 11.9724 35.2758 11.9724H28.7912C25.9264 11.9724 23.6086 14.2825 23.6086 17.1377V25.608H40.4584V17.1377Z" fill="var(--fill-0, #ABEFFF)" stroke="var(--stroke-0, #393842)" stroke-width="2" stroke-linecap="round" stroke-linejoin="round"/>
<path id="Vector_5" d="M25.9091 15.8139C25.9091 18.5133 23.7128 20.7023 21.0043 20.7023C18.2959 20.7023 16.0996 18.5133 16.0996 15.8139C16.0996 13.1145 18.2959 10.9255 21.0043 10.9255C23.7128 10.9255 25.9091 13.1145 25.9091 15.8139Z" fill="var(--fill-0, white)" stroke="var(--stroke-0, #393842)" stroke-width="2" stroke-linecap="round" stroke-linejoin="round"/>
<path id="Vector_6" d="M29.4249 26.5164C29.4249 23.6613 27.107 21.3512 24.2423 21.3512H17.7577C14.8929 21.3512 12.5751 23.6613 12.5751 26.5164V34.9868H29.4335V26.5164H29.4249Z" fill="var(--fill-0, #00C1A6)" stroke="var(--stroke-0, #393842)" stroke-width="2" stroke-linecap="round" stroke-linejoin="round"/>
</g>
</svg>
