<svg preserveAspectRatio="none" width="100%" height="100%" overflow="visible" style="display: block;" viewBox="0 0 44 33.9167" fill="none" xmlns="http://www.w3.org/2000/svg">
<g id="group" clip-path="url(#clip0_14788_58056)">
<path id="Vector" d="M26.6039 1.99235H3.48109C2.65497 1.99235 1.99235 2.65497 1.99235 3.48109V13.9023C1.99235 14.7284 2.65497 15.391 3.48109 15.391H6.82861V20.9759L12.4135 15.391H26.6039C27.43 15.391 28.0927 14.7284 28.0927 13.9023V3.48109C28.0927 2.65497 27.43 1.99235 26.6039 1.99235Z" fill="var(--fill-0, #ABEFFF)" stroke="var(--stroke-0, #393842)" stroke-width="2" stroke-linecap="round" stroke-linejoin="round"/>
<path id="Vector_2" d="M10.7355 8.69599H19.3495" stroke="var(--stroke-0, #393842)" stroke-width="2" stroke-linecap="round" stroke-linejoin="round"/>
<path id="Vector_3" d="M17.3961 13.5322H40.5189C41.345 13.5322 42.0077 14.2035 42.0077 15.021V25.4422C42.0077 26.2683 41.345 26.9309 40.5189 26.9309H37.1714V32.5158L31.5865 26.9309H17.3961C16.57 26.9309 15.9073 26.2597 15.9073 25.4422V15.021C15.9073 14.2035 16.57 13.5322 17.3961 13.5322Z" fill="var(--fill-0, #00C1A6)" stroke="var(--stroke-0, #393842)" stroke-width="2" stroke-linecap="round" stroke-linejoin="round"/>
<path id="Vector_4" d="M33.2645 20.2273H24.6505" stroke="var(--stroke-0, #393842)" stroke-width="2" stroke-linecap="round" stroke-linejoin="round"/>
</g>
<defs>
<clipPath id="clip0_14788_58056">
<rect width="44" height="33.9167" fill="white"/>
</clipPath>
</defs>
</svg>
