<svg preserveAspectRatio="none" width="100%" height="100%" overflow="visible" style="display: block;" viewBox="0 0 28 41.0667" fill="none" xmlns="http://www.w3.org/2000/svg">
<g id="group">
<path id="Vector" d="M20.1567 14.9434C20.1567 18.3456 17.4022 21.1001 14 21.1001C10.5978 21.1001 7.8433 18.3456 7.8433 14.9434C7.8433 11.5412 10.5978 8.78669 14 8.78669C17.4022 8.78669 20.1567 11.5412 20.1567 14.9434Z" fill="var(--fill-0, white)" stroke="var(--stroke-0, #393842)" stroke-width="2" stroke-linecap="round" stroke-linejoin="round"/>
<path id="Vector_2" d="M20.0501 23.9366H7.94988C4.60509 23.9366 1.89975 26.6419 1.89975 29.9867V39.0865H26.1003V29.9867C26.1003 26.6419 23.3949 23.9366 20.0501 23.9366Z" fill="var(--fill-0, #00C1A6)" stroke="var(--stroke-0, #393842)" stroke-width="2" stroke-linecap="round" stroke-linejoin="round"/>
<g id="Group">
<path id="Vector_3" d="M7.36782 30.5688V39.0865" stroke="var(--stroke-0, #393842)" stroke-width="2" stroke-linecap="round" stroke-linejoin="round"/>
<path id="Vector_4" d="M20.6322 39.0865V30.5688" stroke="var(--stroke-0, #393842)" stroke-width="2" stroke-linecap="round" stroke-linejoin="round"/>
</g>
<path id="Vector_5" d="M14.5247 4.19581V1.43308" stroke="var(--stroke-0, #393842)" stroke-width="2" stroke-linecap="round" stroke-linejoin="round"/>
<path id="Vector_6" d="M21.3618 8.3194L23.9442 7.54059" stroke="var(--stroke-0, #393842)" stroke-width="2" stroke-linecap="round" stroke-linejoin="round"/>
<path id="Vector_7" d="M18.6647 5.24515L20.1403 3.03989" stroke="var(--stroke-0, #393842)" stroke-width="2" stroke-linecap="round" stroke-linejoin="round"/>
</g>
</svg>
