<svg preserveAspectRatio="none" width="100%" height="100%" overflow="visible" style="display: block;" viewBox="0 0 38 45.6" fill="none" xmlns="http://www.w3.org/2000/svg">
<g id="group">
<path id="Vector" d="M23.2386 43.4748H7.3036L7.23565 42.0138C7.15071 40.213 6.90438 36.4077 6.75998 35.2185C6.36075 31.8633 5.16308 29.1962 3.65113 26.0618C1.13687 20.838 1.53609 14.4674 4.69591 9.43885C7.60939 4.79256 12.3236 2.12541 17.6155 2.12541C21.7776 2.12541 25.7188 3.82424 28.7173 6.9076C31.0616 9.31993 31.7157 12.2674 32.3612 15.1214C32.5481 15.9368 32.735 16.7863 32.9643 17.5932C33.6439 20.014 34.6122 22.4348 35.4616 24.5159L35.9967 25.824L34.7311 26.4611C34.0686 26.7923 33.44 26.8773 32.9728 26.8943V31.4811C33.0238 31.9737 33.0578 33.3243 32.0894 34.4965C31.1636 35.6007 29.6856 36.1613 27.698 36.1613H23.2556V43.4833L23.2386 43.4748Z" fill="var(--fill-0, white)" stroke="var(--stroke-0, #393842)" stroke-width="2" stroke-linecap="round" stroke-linejoin="round"/>
<path id="Vector_2" d="M21.837 22.4688L21.3104 19.4194C21.3104 19.4194 23.366 17.3808 23.4594 17.2959C24.5297 16.2511 24.3258 15.2318 23.0687 14.8666L19.671 14.3739L18.1931 11.384C17.5135 10.2628 16.5197 10.2628 15.8402 11.384L14.3622 14.3739L10.9646 14.8666C9.70744 15.2318 9.50358 16.2511 10.5738 17.2959C10.6673 17.3893 12.7228 19.4194 12.7228 19.4194L12.2047 22.4688C11.9924 24.0063 12.9437 24.6518 14.3707 23.9043C14.4981 23.8364 17.0294 22.5368 17.0294 22.5368C17.0294 22.5368 19.5521 23.8364 19.6795 23.9043C21.098 24.6518 22.0494 24.0063 21.8455 22.4688H21.837Z" fill="var(--fill-0, #00C1A6)" stroke="var(--stroke-0, #393842)" stroke-width="2" stroke-linecap="round" stroke-linejoin="round"/>
</g>
</svg>
