<svg preserveAspectRatio="none" width="100%" height="100%" overflow="visible" style="display: block;" viewBox="0 0 41 35.9103" fill="none" xmlns="http://www.w3.org/2000/svg">
<g id="group">
<path id="Vector" d="M30.1554 2.30118C30.1554 1.58553 29.5657 1 28.845 1H2.31035C1.58966 1 1 1.58553 1 2.30118V33.6091C1 34.3248 1.58966 34.9103 2.31035 34.9103H23.0503L30.1554 27.855V2.30118Z" fill="var(--fill-0, #ABEFFF)" stroke="var(--stroke-0, #393842)" stroke-width="2" stroke-linecap="round" stroke-linejoin="round"/>
<path id="Vector_2" d="M30.1523 27.8506H24.9255C23.8845 27.8506 23.0473 28.6891 23.0473 29.7156V34.9059L30.1523 27.8506Z" fill="var(--fill-0, white)" stroke="var(--stroke-0, #393842)" stroke-width="2" stroke-linecap="round" stroke-linejoin="round"/>
<g id="Group">
<path id="Vector_3" d="M11.0467 20.2176H20.1027" stroke="var(--stroke-0, #393842)" stroke-width="2" stroke-linecap="round" stroke-linejoin="round"/>
<path id="Vector_4" d="M11.0467 24.7803H20.1027" stroke="var(--stroke-0, #393842)" stroke-width="2" stroke-linecap="round" stroke-linejoin="round"/>
</g>
<g id="Group_2">
<path id="Vector_5" d="M11.0467 11.1289H20.1027" stroke="var(--stroke-0, #393842)" stroke-width="2" stroke-linecap="round" stroke-linejoin="round"/>
<path id="Vector_6" d="M11.0467 15.6992H20.1027" stroke="var(--stroke-0, #393842)" stroke-width="2" stroke-linecap="round" stroke-linejoin="round"/>
</g>
<path id="Vector_7" d="M29.2842 16.8398L24.2394 17.6711L25.0765 12.6687L30.4344 7.3411L35.7996 2.0207L37.8962 4.10983L40 6.19895L34.6421 11.5194L29.2842 16.8398Z" fill="var(--fill-0, #00C1A6)" stroke="var(--stroke-0, #393842)" stroke-width="2" stroke-linecap="round" stroke-linejoin="round"/>
</g>
</svg>
