<svg preserveAspectRatio="none" width="100%" height="100%" overflow="visible" style="display: block;" viewBox="0 0 20 24" fill="none" xmlns="http://www.w3.org/2000/svg">
<g id="group">
<path id="Vector" d="M15.9569 24L10.0824 22.0421L4.42745 24V10.2014H15.9569V24Z" fill="var(--fill-0, #FF5152)"/>
<path id="Vector_2" d="M10 19C14.9706 19 19 14.9706 19 10C19 5.02944 14.9706 1 10 1C5.02944 1 1 5.02944 1 10C1 14.9706 5.02944 19 10 19Z" fill="var(--fill-0, #FFCA0D)"/>
<path id="Vector_3" d="M10 3.5C13.5899 3.5 16.5 6.41015 16.5 10C16.5 13.5899 13.5899 16.5 10 16.5C6.41015 16.5 3.5 13.5899 3.5 10C3.5 6.41015 6.41015 3.5 10 3.5Z" fill="var(--fill-0, #FFB428)" stroke="var(--stroke-0, white)"/>
</g>
</svg>
