<svg preserveAspectRatio="none" width="100%" height="100%" overflow="visible" style="display: block;" viewBox="0 0 32 32" fill="none" xmlns="http://www.w3.org/2000/svg">
<g id="icon">
<mask id="mask0_14788_57898" style="mask-type:alpha" maskUnits="userSpaceOnUse" x="0" y="0" width="32" height="32">
<rect id="Bounding box" width="32" height="32" fill="var(--fill-0, #D9D9D9)"/>
</mask>
<g mask="url(#mask0_14788_57898)">
<path id="browse" d="M4.66663 17.3333V7.07695C4.66663 6.40339 4.89996 5.83328 5.36663 5.36662C5.83329 4.89995 6.4034 4.66662 7.07696 4.66662H14.6666V17.3333H4.66663ZM17.3333 4.66662H24.923C25.5965 4.66662 26.1666 4.89995 26.6333 5.36662C27.1 5.83328 27.3333 6.40484 27.3333 7.08128V11.9999H17.3333V4.66662ZM17.3333 27.3333V14.6666H27.3333V24.9229C27.3333 25.5965 27.1 26.1666 26.6333 26.6333C26.1666 27.0999 25.5965 27.3333 24.923 27.3333H17.3333ZM4.66663 19.9999H14.6666V27.3333H7.07696C6.4034 27.3333 5.83329 27.0999 5.36663 26.6333C4.89996 26.1666 4.66663 25.5951 4.66663 24.9186V19.9999Z" fill="var(--fill-0, white)"/>
</g>
</g>
</svg>
