<svg preserveAspectRatio="none" width="100%" height="100%" overflow="visible" style="display: block;" viewBox="0 0 32 32" fill="none" xmlns="http://www.w3.org/2000/svg">
<g id="icon">
<mask id="mask0_14788_57906" style="mask-type:alpha" maskUnits="userSpaceOnUse" x="0" y="0" width="32" height="32">
<rect id="Bounding box" width="32" height="32" fill="var(--fill-0, #D9D9D9)"/>
</mask>
<g mask="url(#mask0_14788_57906)">
<path id="home" d="M6 25.3333V13.5383C6 13.1567 6.08533 12.7953 6.256 12.454C6.42689 12.1124 6.66289 11.8312 6.964 11.6103L14.554 5.89229C14.9751 5.57095 15.4564 5.41029 15.998 5.41029C16.5396 5.41029 17.0222 5.57095 17.446 5.89229L25.036 11.6103C25.3371 11.8312 25.5731 12.1124 25.744 12.454C25.9147 12.7953 26 13.1567 26 13.5383V25.3333C26 25.8786 25.803 26.3483 25.409 26.7423C25.015 27.1363 24.5453 27.3333 24 27.3333H19.7437C19.4021 27.3333 19.1159 27.2177 18.885 26.9866C18.6539 26.7557 18.5383 26.4695 18.5383 26.128V19.6153C18.5383 19.274 18.4229 18.9877 18.192 18.7566C17.9611 18.5257 17.6749 18.4103 17.3333 18.4103H14.6667C14.3251 18.4103 14.0389 18.5257 13.808 18.7566C13.5771 18.9877 13.4617 19.274 13.4617 19.6153V26.128C13.4617 26.4695 13.3461 26.7557 13.115 26.9866C12.8841 27.2177 12.5979 27.3333 12.2563 27.3333H8C7.45467 27.3333 6.985 27.1363 6.591 26.7423C6.197 26.3483 6 25.8786 6 25.3333Z" fill="var(--fill-0, white)"/>
</g>
</g>
</svg>
