<svg preserveAspectRatio="none" width="100%" height="100%" overflow="visible" style="display: block;" viewBox="0 0 32 32" fill="none" xmlns="http://www.w3.org/2000/svg">
<g id="search">
<mask id="mask0_14788_58021" style="mask-type:alpha" maskUnits="userSpaceOnUse" x="0" y="0" width="32" height="32">
<rect id="Bounding box" width="32" height="32" fill="var(--fill-0, #D9D9D9)"/>
</mask>
<g mask="url(#mask0_14788_58021)">
<path id="search_2" d="M12.6921 20.8204C10.4152 20.8204 8.48697 20.0307 6.90741 18.4514C5.32808 16.8718 4.53841 14.9436 4.53841 12.6667C4.53841 10.3898 5.32808 8.46158 6.90741 6.88202C8.48697 5.30269 10.4152 4.51302 12.6921 4.51302C14.969 4.51302 16.8972 5.30269 18.4767 6.88202C20.0561 8.46158 20.8457 10.3898 20.8457 12.6667C20.8457 13.6189 20.686 14.5284 20.3664 15.395C20.0466 16.2617 19.6201 17.0155 19.0867 17.6564L26.7587 25.3284C26.9434 25.5128 27.0379 25.7448 27.0421 26.0244C27.0463 26.3039 26.9519 26.5402 26.7587 26.7334C26.5656 26.9265 26.3314 27.023 26.0561 27.023C25.781 27.023 25.5469 26.9265 25.3537 26.7334L17.6817 19.0614C17.0151 19.6118 16.2484 20.0426 15.3817 20.3537C14.5151 20.6648 13.6185 20.8204 12.6921 20.8204ZM12.6921 18.8207C14.4101 18.8207 15.8652 18.2245 17.0574 17.032C18.2499 15.8398 18.8461 14.3847 18.8461 12.6667C18.8461 10.9487 18.2499 9.49357 17.0574 8.30135C15.8652 7.10891 14.4101 6.51269 12.6921 6.51269C10.9741 6.51269 9.51897 7.10891 8.32674 8.30135C7.1343 9.49357 6.53808 10.9487 6.53808 12.6667C6.53808 14.3847 7.1343 15.8398 8.32674 17.032C9.51897 18.2245 10.9741 18.8207 12.6921 18.8207Z" fill="var(--fill-0, white)"/>
</g>
</g>
</svg>
