<svg preserveAspectRatio="none" width="100%" height="100%" overflow="visible" style="display: block;" viewBox="0 0 32 32" fill="none" xmlns="http://www.w3.org/2000/svg">
<g id="icon">
<mask id="mask0_14788_57902" style="mask-type:alpha" maskUnits="userSpaceOnUse" x="0" y="0" width="32" height="32">
<rect id="Bounding box" width="32" height="32" fill="var(--fill-0, #D9D9D9)"/>
</mask>
<g mask="url(#mask0_14788_57902)">
<path id="attach_file_add" d="M15.807 28.6667C13.6417 28.6667 11.8034 27.9067 10.2923 26.3867C8.78122 24.8669 8.02567 23.0243 8.02567 20.859V8.87167C8.02567 7.33322 8.55989 6.02556 9.62833 4.94867C10.6966 3.87178 11.9999 3.33333 13.5383 3.33333C15.0768 3.33333 16.3802 3.87178 17.4487 4.94867C18.5171 6.02556 19.0513 7.33322 19.0513 8.87167V17.6667C19.0513 17.95 18.9554 18.1876 18.7637 18.3793C18.5719 18.5709 18.3343 18.6667 18.051 18.6667C17.7674 18.6667 17.5299 18.5709 17.3383 18.3793C17.147 18.1876 17.0513 17.95 17.0513 17.6667V8.859C17.0376 7.87433 16.6956 7.04055 16.0253 6.35767C15.3551 5.67478 14.5261 5.33333 13.5383 5.33333C12.5548 5.33333 11.7234 5.67689 11.0443 6.364C10.3652 7.05133 10.0257 7.88722 10.0257 8.87167V20.859C10.0119 22.471 10.5691 23.8419 11.6973 24.9717C12.8256 26.1017 14.1957 26.6667 15.8077 26.6667C16.1854 26.6667 16.5496 26.6278 16.9 26.55C17.2504 26.4722 17.5854 26.3736 17.905 26.254C18.1666 26.1547 18.4249 26.1581 18.68 26.2643C18.9349 26.3706 19.1133 26.5542 19.2153 26.8153C19.3144 27.0769 19.3089 27.3359 19.1987 27.5923C19.0884 27.8488 18.9026 28.0266 18.641 28.1257C18.1999 28.3034 17.7422 28.438 17.268 28.5293C16.7936 28.6209 16.3066 28.6667 15.807 28.6667ZM22.5637 27.3333C22.2801 27.3333 22.0427 27.2374 21.8513 27.0457C21.6598 26.8541 21.564 26.6167 21.564 26.3333V23.5897H18.8207C18.5373 23.5897 18.2998 23.4938 18.108 23.302C17.9164 23.1102 17.8207 22.8727 17.8207 22.5893C17.8207 22.3058 17.9164 22.0683 18.108 21.877C18.2998 21.6854 18.5373 21.5897 18.8207 21.5897H21.564V18.8463C21.564 18.563 21.6599 18.3254 21.8517 18.1337C22.0434 17.9421 22.2811 17.8463 22.5647 17.8463C22.848 17.8463 23.0854 17.9421 23.277 18.1337C23.4683 18.3254 23.564 18.563 23.564 18.8463V21.5897H26.3077C26.591 21.5897 26.8284 21.6856 27.02 21.8773C27.2118 22.0691 27.3077 22.3068 27.3077 22.5903C27.3077 22.8737 27.2118 23.1111 27.02 23.3027C26.8284 23.494 26.591 23.5897 26.3077 23.5897H23.564V26.3333C23.564 26.6167 23.4681 26.8541 23.2763 27.0457C23.0846 27.2374 22.847 27.3333 22.5637 27.3333ZM13.538 22.5897C13.2547 22.5897 13.0172 22.4939 12.8257 22.3023C12.6343 22.1106 12.5387 21.873 12.5387 21.5897V9.513C12.5387 9.22967 12.6344 8.99211 12.826 8.80033C13.0178 8.60878 13.2554 8.513 13.539 8.513C13.8223 8.513 14.0598 8.60878 14.2513 8.80033C14.4427 8.99211 14.5383 9.22967 14.5383 9.513V21.5897C14.5383 21.873 14.4424 22.1106 14.2507 22.3023C14.0591 22.4939 13.8216 22.5897 13.538 22.5897ZM22.5637 14.923C22.2801 14.923 22.0427 14.8272 21.8513 14.6357C21.6598 14.4439 21.564 14.2063 21.564 13.923V9.513C21.564 9.22967 21.6599 8.99211 21.8517 8.80033C22.0434 8.60878 22.2811 8.513 22.5647 8.513C22.848 8.513 23.0854 8.60878 23.277 8.80033C23.4683 8.99211 23.564 9.22967 23.564 9.513V13.923C23.564 14.2063 23.4681 14.4439 23.2763 14.6357C23.0846 14.8272 22.847 14.923 22.5637 14.923Z" fill="var(--fill-0, white)"/>
</g>
</g>
</svg>
