<svg preserveAspectRatio="none" width="100%" height="100%" overflow="visible" style="display: block;" viewBox="0 0 32 32" fill="none" xmlns="http://www.w3.org/2000/svg">
<g id="icon">
<mask id="mask0_14788_57950" style="mask-type:alpha" maskUnits="userSpaceOnUse" x="0" y="0" width="32" height="32">
<rect id="Bounding box" width="32" height="32" fill="var(--fill-0, #D9D9D9)"/>
</mask>
<g mask="url(#mask0_14788_57950)">
<path id="frame_inspect" d="M14.8717 18.205C15.8017 18.205 16.5898 17.882 17.236 17.236C17.882 16.5898 18.205 15.8017 18.205 14.8717C18.205 13.9419 17.882 13.1539 17.236 12.5077C16.5898 11.8614 15.8017 11.5383 14.8717 11.5383C13.9419 11.5383 13.1539 11.8614 12.5077 12.5077C11.8614 13.1539 11.5383 13.9419 11.5383 14.8717C11.5383 15.8017 11.8614 16.5898 12.5077 17.236C13.1539 17.882 13.9419 18.205 14.8717 18.205ZM14.8717 20.205C13.3879 20.205 12.1281 19.6871 11.0923 18.6513C10.0563 17.6153 9.53833 16.3555 9.53833 14.8717C9.53833 13.3879 10.0563 12.1281 11.0923 11.0923C12.1281 10.0563 13.3879 9.53834 14.8717 9.53834C16.3554 9.53834 17.6153 10.0563 18.6513 11.0923C19.6871 12.1281 20.205 13.3879 20.205 14.8717C20.205 15.4086 20.1242 15.9291 19.9627 16.4333C19.8011 16.9376 19.5631 17.4119 19.2487 17.8563L22.1693 20.764C22.3676 20.9625 22.4653 21.1946 22.4627 21.4603C22.4602 21.7261 22.3556 21.9624 22.1487 22.1693C21.9418 22.3624 21.7076 22.4624 21.446 22.4693C21.1847 22.476 20.9506 22.376 20.7437 22.1693L17.8563 19.2693C17.4119 19.5838 16.9376 19.8183 16.4333 19.973C15.9291 20.1277 15.4086 20.205 14.8717 20.205ZM7.077 27.3333C6.40344 27.3333 5.83333 27.1 5.36667 26.6333C4.9 26.1667 4.66667 25.5966 4.66667 24.923V21C4.66667 20.7162 4.76244 20.4787 4.954 20.2873C5.14533 20.0958 5.38289 20 5.66667 20C5.95044 20 6.188 20.0958 6.37933 20.2873C6.57089 20.4787 6.66667 20.7162 6.66667 21V24.923C6.66667 25.0257 6.70944 25.1197 6.795 25.205C6.88033 25.2906 6.97433 25.3333 7.077 25.3333H11C11.2838 25.3333 11.5213 25.4291 11.7127 25.6207C11.9042 25.812 12 26.0496 12 26.3333C12 26.6171 11.9042 26.8547 11.7127 27.046C11.5213 27.2376 11.2838 27.3333 11 27.3333H7.077ZM24.923 27.3333H21C20.7162 27.3333 20.4787 27.2376 20.2873 27.046C20.0958 26.8547 20 26.6171 20 26.3333C20 26.0496 20.0958 25.812 20.2873 25.6207C20.4787 25.4291 20.7162 25.3333 21 25.3333H24.923C25.0257 25.3333 25.1197 25.2906 25.205 25.205C25.2906 25.1197 25.3333 25.0257 25.3333 24.923V21C25.3333 20.7162 25.4291 20.4787 25.6207 20.2873C25.812 20.0958 26.0496 20 26.3333 20C26.6171 20 26.8547 20.0958 27.046 20.2873C27.2376 20.4787 27.3333 20.7162 27.3333 21V24.923C27.3333 25.5966 27.1 26.1667 26.6333 26.6333C26.1667 27.1 25.5966 27.3333 24.923 27.3333ZM4.66667 11V7.07701C4.66667 6.40345 4.9 5.83334 5.36667 5.36667C5.83333 4.90001 6.40344 4.66667 7.077 4.66667H11C11.2838 4.66667 11.5213 4.76245 11.7127 4.95401C11.9042 5.14534 12 5.38289 12 5.66667C12 5.95045 11.9042 6.18801 11.7127 6.37934C11.5213 6.57089 11.2838 6.66667 11 6.66667H7.077C6.97433 6.66667 6.88033 6.70945 6.795 6.795C6.70944 6.88034 6.66667 6.97434 6.66667 7.07701V11C6.66667 11.2838 6.57089 11.5213 6.37933 11.7127C6.188 11.9042 5.95044 12 5.66667 12C5.38289 12 5.14533 11.9042 4.954 11.7127C4.76244 11.5213 4.66667 11.2838 4.66667 11ZM25.3333 11V7.07701C25.3333 6.97434 25.2906 6.88034 25.205 6.795C25.1197 6.70945 25.0257 6.66667 24.923 6.66667H21C20.7162 6.66667 20.4787 6.57089 20.2873 6.37934C20.0958 6.18801 20 5.95045 20 5.66667C20 5.38289 20.0958 5.14534 20.2873 4.95401C20.4787 4.76245 20.7162 4.66667 21 4.66667H24.923C25.5966 4.66667 26.1667 4.90001 26.6333 5.36667C27.1 5.83334 27.3333 6.40345 27.3333 7.07701V11C27.3333 11.2838 27.2376 11.5213 27.046 11.7127C26.8547 11.9042 26.6171 12 26.3333 12C26.0496 12 25.812 11.9042 25.6207 11.7127C25.4291 11.5213 25.3333 11.2838 25.3333 11Z" fill="var(--fill-0, white)"/>
</g>
</g>
</svg>
