<svg preserveAspectRatio="none" width="100%" height="100%" overflow="visible" style="display: block;" viewBox="0 0 90 90" fill="none" xmlns="http://www.w3.org/2000/svg">
<g id="person">
<mask id="mask0_14788_58992" style="mask-type:alpha" maskUnits="userSpaceOnUse" x="0" y="0" width="90" height="90">
<rect id="Bounding box" width="90" height="90" fill="var(--fill-0, #D9D9D9)"/>
</mask>
<g mask="url(#mask0_14788_58992)">
<path id="person_2" d="M45 43.8459C41.3906 43.8459 38.3009 42.5609 35.7309 39.9909C33.1603 37.4203 31.875 34.3303 31.875 30.7209C31.875 27.1116 33.1603 24.0219 35.7309 21.4519C38.3009 18.8813 41.3906 17.5959 45 17.5959C48.6094 17.5959 51.6991 18.8813 54.2691 21.4519C56.8397 24.0219 58.125 27.1116 58.125 30.7209C58.125 34.3303 56.8397 37.4203 54.2691 39.9909C51.6991 42.5609 48.6094 43.8459 45 43.8459ZM16.875 66.7069V64.0669C16.875 62.2306 17.3738 60.53 18.3713 58.965C19.3688 57.4 20.7019 56.1969 22.3706 55.3556C26.0769 53.5387 29.8159 52.1759 33.5878 51.2672C37.3597 50.3584 41.1637 49.9041 45 49.9041C48.8363 49.9041 52.6403 50.3584 56.4122 51.2672C60.1841 52.1759 63.9231 53.5387 67.6294 55.3556C69.2981 56.1969 70.6312 57.4 71.6287 58.965C72.6262 60.53 73.125 62.2306 73.125 64.0669V66.7069C73.125 68.2881 72.5709 69.6331 71.4628 70.7419C70.3547 71.85 69.0097 72.4041 67.4278 72.4041H22.5722C20.9903 72.4041 19.6453 71.85 18.5372 70.7419C17.4291 69.6331 16.875 68.2881 16.875 66.7069ZM22.5 66.7791H67.5V64.0669C67.5 63.3075 67.28 62.6044 66.84 61.9575C66.4 61.3112 65.8028 60.7837 65.0484 60.375C61.8172 58.7837 58.5228 57.5781 55.1653 56.7581C51.8072 55.9388 48.4188 55.5291 45 55.5291C41.5812 55.5291 38.1928 55.9388 34.8347 56.7581C31.4772 57.5781 28.1828 58.7837 24.9516 60.375C24.1972 60.7837 23.6 61.3112 23.16 61.9575C22.72 62.6044 22.5 63.3075 22.5 64.0669V66.7791ZM45 38.2209C47.0625 38.2209 48.8281 37.4866 50.2969 36.0178C51.7656 34.5491 52.5 32.7834 52.5 30.7209C52.5 28.6584 51.7656 26.8928 50.2969 25.4241C48.8281 23.9553 47.0625 23.2209 45 23.2209C42.9375 23.2209 41.1719 23.9553 39.7031 25.4241C38.2344 26.8928 37.5 28.6584 37.5 30.7209C37.5 32.7834 38.2344 34.5491 39.7031 36.0178C41.1719 37.4866 42.9375 38.2209 45 38.2209Z" fill="var(--fill-0, white)"/>
</g>
</g>
</svg>
