<svg preserveAspectRatio="none" width="100%" height="100%" overflow="visible" style="display: block;" viewBox="0 0 20 20" fill="none" xmlns="http://www.w3.org/2000/svg">
<g id="pause">
<mask id="mask0_14788_58027" style="mask-type:alpha" maskUnits="userSpaceOnUse" x="0" y="0" width="20" height="20">
<rect id="Bounding box" width="20" height="20" fill="var(--fill-0, #D9D9D9)"/>
</mask>
<g mask="url(#mask0_14788_58027)">
<path id="pause_2" d="M12.9167 15.4167C12.5758 15.4167 12.2823 15.2935 12.036 15.0473C11.7898 14.801 11.6667 14.5075 11.6667 14.1667V5.83333C11.6667 5.4925 11.7898 5.19896 12.036 4.95271C12.2823 4.70646 12.5758 4.58333 12.9167 4.58333H13.5417C13.8825 4.58333 14.176 4.70646 14.4223 4.95271C14.6685 5.19896 14.7917 5.4925 14.7917 5.83333V14.1667C14.7917 14.5075 14.6685 14.801 14.4223 15.0473C14.176 15.2935 13.8825 15.4167 13.5417 15.4167H12.9167ZM6.45833 15.4167C6.1175 15.4167 5.82396 15.2935 5.57771 15.0473C5.33146 14.801 5.20833 14.5075 5.20833 14.1667V5.83333C5.20833 5.4925 5.33146 5.19896 5.57771 4.95271C5.82396 4.70646 6.1175 4.58333 6.45833 4.58333H7.08333C7.42417 4.58333 7.71771 4.70646 7.96396 4.95271C8.21021 5.19896 8.33333 5.4925 8.33333 5.83333V14.1667C8.33333 14.5075 8.21021 14.801 7.96396 15.0473C7.71771 15.2935 7.42417 15.4167 7.08333 15.4167H6.45833Z" fill="var(--fill-0, #004F9E)"/>
</g>
</g>
</svg>
