<svg preserveAspectRatio="none" width="100%" height="100%" overflow="visible" style="display: block;" viewBox="0 0 36.6154 36.6154" fill="none" xmlns="http://www.w3.org/2000/svg">
<g id="supervisor_account">
<mask id="mask0_14788_57967" style="mask-type:alpha" maskUnits="userSpaceOnUse" x="0" y="0" width="37" height="37">
<rect id="Bounding box" width="36.6154" height="36.6154" fill="var(--fill-0, #D9D9D9)"/>
</mask>
<g mask="url(#mask0_14788_57967)">
<path id="supervisor_account_2" d="M25.8478 21.8285C24.8973 21.8285 24.0876 21.494 23.4186 20.825C22.7496 20.156 22.4151 19.3463 22.4151 18.3958C22.4151 17.4451 22.7496 16.6352 23.4186 15.9662C24.0876 15.2975 24.8973 14.9631 25.8478 14.9631C26.7985 14.9631 27.6083 15.2975 28.277 15.9662C28.946 16.6352 29.2805 17.4451 29.2805 18.3958C29.2805 19.3463 28.946 20.156 28.277 20.825C27.6083 21.494 26.7985 21.8285 25.8478 21.8285ZM18.601 28.0775V27.7022C18.601 27.1603 18.7396 26.6629 19.0167 26.2097C19.2939 25.7566 19.6874 25.4307 20.1972 25.2318C21.093 24.8601 22.0158 24.5813 22.9655 24.3954C23.9149 24.2098 24.8757 24.117 25.8478 24.117C26.8199 24.117 27.7808 24.2098 28.7305 24.3954C29.6799 24.5813 30.6027 24.8601 31.4988 25.2318C32.0086 25.4307 32.4019 25.7566 32.6788 26.2097C32.956 26.6629 33.0946 27.1603 33.0946 27.7022V28.0775C33.0946 28.4683 32.9625 28.7958 32.6983 29.06C32.4339 29.3245 32.1063 29.4567 31.7158 29.4567H19.9802C19.5894 29.4567 19.2619 29.3245 18.9977 29.06C18.7332 28.7958 18.601 28.4683 18.601 28.0775ZM14.9631 17.8382C13.4947 17.8382 12.2375 17.3154 11.1917 16.2698C10.1461 15.224 9.62336 13.9669 9.62336 12.4984C9.62336 11.03 10.1461 9.773 11.1917 8.72743C12.2375 7.6816 13.4947 7.15869 14.9631 7.15869C16.4315 7.15869 17.6885 7.6816 18.7341 8.72743C19.7799 9.773 20.3028 11.03 20.3028 12.4984C20.3028 13.9669 19.7799 15.224 18.7341 16.2698C17.6885 17.3154 16.4315 17.8382 14.9631 17.8382ZM3.5208 26.0633C3.5208 25.3015 3.71977 24.6013 4.1177 23.9629C4.5159 23.3241 5.06208 22.8434 5.75624 22.5207C7.19391 21.7971 8.68611 21.2465 10.2329 20.8689C11.7796 20.4915 13.3564 20.3028 14.9631 20.3028C15.716 20.3028 16.469 20.3571 17.2222 20.4657C17.9751 20.5743 18.7281 20.7057 19.4813 20.8601C19.1566 21.1896 18.8319 21.5193 18.5072 21.8491L17.533 22.8377C17.1049 22.735 16.6765 22.6682 16.2481 22.6375C15.8196 22.6067 15.3913 22.5913 14.9631 22.5913C13.5371 22.5913 12.1357 22.7546 10.7588 23.081C9.38167 23.4078 8.06428 23.9017 6.80665 24.5628C6.51322 24.7192 6.27356 24.924 6.08769 25.1773C5.90207 25.4308 5.80926 25.7266 5.80926 26.0648V27.1682H14.9631V28.0542C14.9631 28.3507 15.0151 28.6186 15.1191 28.8579C15.2231 29.0974 15.3687 29.297 15.5558 29.4567H5.83863C5.19506 29.4567 4.64786 29.2313 4.19704 28.7805C3.74621 28.3294 3.5208 27.7822 3.5208 27.1389V26.0633ZM14.9631 15.5497C15.8022 15.5497 16.5205 15.2509 17.1181 14.6534C17.7156 14.0559 18.0144 13.3375 18.0144 12.4984C18.0144 11.6593 17.7156 10.941 17.1181 10.3435C16.5205 9.74592 15.8022 9.44715 14.9631 9.44715C14.124 9.44715 13.4057 9.74592 12.8081 10.3435C12.2106 10.941 11.9118 11.6593 11.9118 12.4984C11.9118 13.3375 12.2106 14.0559 12.8081 14.6534C13.4057 15.2509 14.124 15.5497 14.9631 15.5497Z" fill="var(--fill-0, white)"/>
</g>
</g>
</svg>
