<svg preserveAspectRatio="none" width="100%" height="100%" overflow="visible" style="display: block;" viewBox="0 0 20 20" fill="none" xmlns="http://www.w3.org/2000/svg">
<g id="view_agenda">
<mask id="mask0_14788_57942" style="mask-type:alpha" maskUnits="userSpaceOnUse" x="0" y="0" width="20" height="20">
<rect id="Bounding box" width="20" height="20" fill="var(--fill-0, #D9D9D9)"/>
</mask>
<g mask="url(#mask0_14788_57942)">
<path id="view_agenda_2" d="M4.42194 9.00095C4.00097 9.00095 3.64465 8.85511 3.35298 8.56345C3.06132 8.27178 2.91548 7.91546 2.91548 7.49449V4.67407C2.91548 4.2531 3.06132 3.89678 3.35298 3.60511C3.64465 3.31345 4.00097 3.16761 4.42194 3.16761H15.5757C15.9967 3.16761 16.353 3.31345 16.6446 3.60511C16.9363 3.89678 17.0821 4.2531 17.0821 4.67407V7.49449C17.0821 7.91546 16.9363 8.27178 16.6446 8.56345C16.353 8.85511 15.9967 9.00095 15.5757 9.00095H4.42194ZM4.42194 7.75095H15.5757C15.6399 7.75095 15.6986 7.72421 15.7519 7.67074C15.8054 7.61741 15.8321 7.55866 15.8321 7.49449V4.67407C15.8321 4.60991 15.8054 4.55115 15.7519 4.49782C15.6986 4.44435 15.6399 4.41761 15.5757 4.41761H4.42194C4.35777 4.41761 4.29902 4.44435 4.24569 4.49782C4.19222 4.55115 4.16548 4.60991 4.16548 4.67407V7.49449C4.16548 7.55866 4.19222 7.61741 4.24569 7.67074C4.29902 7.72421 4.35777 7.75095 4.42194 7.75095ZM4.42194 16.8214C4.00097 16.8214 3.64465 16.6755 3.35298 16.3839C3.06132 16.0922 2.91548 15.7359 2.91548 15.3149V12.4945C2.91548 12.0735 3.06132 11.7172 3.35298 11.4255C3.64465 11.1339 4.00097 10.988 4.42194 10.988H15.5757C15.9967 10.988 16.353 11.1339 16.6446 11.4255C16.9363 11.7172 17.0821 12.0735 17.0821 12.4945V15.3149C17.0821 15.7359 16.9363 16.0922 16.6446 16.3839C16.353 16.6755 15.9967 16.8214 15.5757 16.8214H4.42194ZM4.42194 15.5714H15.5757C15.6399 15.5714 15.6986 15.5446 15.7519 15.4912C15.8054 15.4378 15.8321 15.3791 15.8321 15.3149V12.4945C15.8321 12.4303 15.8054 12.3716 15.7519 12.3182C15.6986 12.2648 15.6399 12.238 15.5757 12.238H4.42194C4.35777 12.238 4.29902 12.2648 4.24569 12.3182C4.19222 12.3716 4.16548 12.4303 4.16548 12.4945V15.3149C4.16548 15.3791 4.19222 15.4378 4.24569 15.4912C4.29902 15.5446 4.35777 15.5714 4.42194 15.5714Z" fill="var(--fill-0, #555466)"/>
</g>
</g>
</svg>
