<svg preserveAspectRatio="none" width="100%" height="100%" overflow="visible" style="display: block;" viewBox="0 0 20 20" fill="none" xmlns="http://www.w3.org/2000/svg">
<g id="view_kanban">
<mask id="mask0_14788_57958" style="mask-type:alpha" maskUnits="userSpaceOnUse" x="0" y="0" width="20" height="20">
<rect id="Bounding box" width="20" height="20" fill="var(--fill-0, #D9D9D9)"/>
</mask>
<g mask="url(#mask0_14788_57958)">
<path id="view_kanban_2" d="M4.42194 17.0857C4.00097 17.0857 3.64465 16.9399 3.35298 16.6482C3.06132 16.3565 2.91548 16.0002 2.91548 15.5792V4.42549C2.91548 4.00452 3.06132 3.6482 3.35298 3.35653C3.64465 3.06487 4.00097 2.91903 4.42194 2.91903H15.5757C15.9967 2.91903 16.353 3.06487 16.6446 3.35653C16.9363 3.6482 17.0821 4.00452 17.0821 4.42549V15.5792C17.0821 16.0002 16.9363 16.3565 16.6446 16.6482C16.353 16.9399 15.9967 17.0857 15.5757 17.0857H4.42194ZM4.42194 15.8357H15.5757C15.6399 15.8357 15.6986 15.809 15.7519 15.7555C15.8054 15.7022 15.8321 15.6434 15.8321 15.5792V4.42549C15.8321 4.36133 15.8054 4.30258 15.7519 4.24924C15.6986 4.19577 15.6399 4.16903 15.5757 4.16903H4.42194C4.35777 4.16903 4.29902 4.19577 4.24569 4.24924C4.19222 4.30258 4.16548 4.36133 4.16548 4.42549V15.5792C4.16548 15.6434 4.19222 15.7022 4.24569 15.7555C4.29902 15.809 4.35777 15.8357 4.42194 15.8357ZM6.66548 6.04403C6.48812 6.04403 6.33965 6.10389 6.22007 6.22362C6.10034 6.3432 6.04048 6.49167 6.04048 6.66903V13.3357C6.04048 13.5131 6.10034 13.6615 6.22007 13.7811C6.33965 13.9008 6.48812 13.9607 6.66548 13.9607C6.84284 13.9607 6.99132 13.9008 7.1109 13.7811C7.23062 13.6615 7.29048 13.5131 7.29048 13.3357V6.66903C7.29048 6.49167 7.23062 6.3432 7.1109 6.22362C6.99132 6.10389 6.84284 6.04403 6.66548 6.04403ZM13.3321 6.04403C13.1548 6.04403 13.0063 6.10389 12.8867 6.22362C12.767 6.3432 12.7071 6.49167 12.7071 6.66903V11.669C12.7071 11.8464 12.767 11.9949 12.8867 12.1145C13.0063 12.2342 13.1548 12.294 13.3321 12.294C13.5095 12.294 13.658 12.2342 13.7776 12.1145C13.8973 11.9949 13.9571 11.8464 13.9571 11.669V6.66903C13.9571 6.49167 13.8973 6.3432 13.7776 6.22362C13.658 6.10389 13.5095 6.04403 13.3321 6.04403ZM9.99882 6.04403C9.82146 6.04403 9.67298 6.10389 9.5534 6.22362C9.43368 6.3432 9.37382 6.49167 9.37382 6.66903V9.16903C9.37382 9.34639 9.43368 9.49487 9.5534 9.61445C9.67298 9.73417 9.82146 9.79403 9.99882 9.79403C10.1762 9.79403 10.3246 9.73417 10.4442 9.61445C10.564 9.49487 10.6238 9.34639 10.6238 9.16903V6.66903C10.6238 6.49167 10.564 6.3432 10.4442 6.22362C10.3246 6.10389 10.1762 6.04403 9.99882 6.04403Z" fill="var(--fill-0, #555466)"/>
</g>
</g>
</svg>
